<svg xmlns="http://www.w3.org/2000/svg" width="48" height="49" fill="none"><g clip-path="url(#a)"><path fill="url(#b)" d="M1.024 23.88A23.005 23.005 0 0 0 4.1 35.4L.831 47.344l12.22-3.205a23.042 23.042 0 0 0 11.017 2.805h.01c12.705 0 23.047-10.338 23.053-23.046a22.903 22.903 0 0 0-6.747-16.304C36.032 3.237 30.244.837 24.077.834 11.37.834 1.029 11.172 1.024 23.88"/><path fill="url(#c)" d="M.2 23.871a23.83 23.83 0 0 0 3.188 11.935L0 48.176l12.66-3.32a23.87 23.87 0 0 0 11.41 2.907h.011c13.16 0 23.875-10.71 23.88-23.873A23.728 23.728 0 0 0 40.973 7C36.464 2.49 30.47.004 24.081 0 10.918 0 .206 10.709.201 23.871Zm7.54 11.312-.473-.75a19.79 19.79 0 0 1-3.034-10.56c.004-10.94 8.907-19.841 19.855-19.841A19.72 19.72 0 0 1 38.121 9.85a19.722 19.722 0 0 1 5.808 14.038c-.005 10.94-8.908 19.842-19.848 19.842h-.008a19.826 19.826 0 0 1-10.102-2.766l-.725-.43-7.512 1.97 2.006-7.322Z"/><path fill="#fff" d="M18.113 13.892c-.447-.993-.918-1.013-1.343-1.03-.348-.016-.746-.015-1.144-.015-.397 0-1.044.15-1.59.747-.548.597-2.09 2.04-2.09 4.976s2.14 5.773 2.437 6.171c.299.398 4.128 6.615 10.193 9.006 5.04 1.988 6.066 1.593 7.16 1.493 1.094-.1 3.53-1.443 4.027-2.836.498-1.393.498-2.588.349-2.837-.15-.249-.547-.398-1.144-.696-.597-.299-3.53-1.742-4.077-1.941-.547-.2-.945-.299-1.343.299-.398.596-1.54 1.94-1.889 2.338-.348.399-.696.448-1.293.15-.597-.3-2.518-.929-4.798-2.961-1.774-1.582-2.972-3.535-3.32-4.132-.348-.597-.037-.92.262-1.218.268-.267.597-.696.896-1.045.297-.348.397-.597.596-.995.199-.398.1-.746-.05-1.045-.15-.298-1.309-3.25-1.84-4.429Z"/></g><defs><linearGradient id="b" x1="2315.83" x2="2315.83" y1="4651.67" y2=".834" gradientUnits="userSpaceOnUse"><stop stop-color="#1FAF38"/><stop offset="1" stop-color="#60D669"/></linearGradient><linearGradient id="c" x1="2398.06" x2="2398.06" y1="4817.61" y2="0" gradientUnits="userSpaceOnUse"><stop stop-color="#F9F9F9"/><stop offset="1" stop-color="#fff"/></linearGradient><clipPath id="a"><path fill="#fff" d="M0 0h47.961v48.336H0z"/></clipPath></defs></svg>