<svg width="16" height="16" fill="none" xmlns="http://www.w3.org/2000/svg"><path d="M8.685 1.333a57.5 57.5 0 0 1 1.46.016l.13.004.474.02c.71.034 1.193.146 1.618.31.44.17.81.399 1.181.769.34.333.601.736.769 1.181.164.425.276.909.31 1.619l.02.475.004.129c.01.328.014.709.015 1.459v1.37c.002.487-.003.973-.015 1.459l-.004.13c-.005.15-.012.297-.02.474-.033.71-.146 1.193-.31 1.619-.167.445-.43.848-.769 1.181a3.277 3.277 0 0 1-1.181.769c-.425.164-.909.276-1.618.31l-.475.02-.13.004c-.328.009-.709.014-1.459.015h-1.37c-.486.002-.973-.003-1.459-.015l-.13-.004a41.763 41.763 0 0 1-.474-.02c-.71-.034-1.193-.146-1.619-.31a3.259 3.259 0 0 1-1.18-.769 3.27 3.27 0 0 1-.77-1.181c-.164-.425-.276-.909-.31-1.619a49.39 49.39 0 0 1-.02-.475l-.003-.129a52.693 52.693 0 0 1-.017-1.459v-1.37c-.001-.487.003-.973.015-1.459l.005-.13c.005-.15.012-.297.02-.474.033-.71.145-1.193.31-1.619.167-.445.43-.848.77-1.181a3.265 3.265 0 0 1 1.18-.769c.426-.164.91-.276 1.62-.31l.474-.02.13-.004c.485-.011.971-.017 1.458-.015h1.37ZM8 4.667a3.333 3.333 0 1 0 0 6.666 3.333 3.333 0 0 0 0-6.666ZM8 6a2 2 0 1 1 0 4 2 2 0 0 1 0-4m3.5-2.333a.833.833 0 1 0 0 1.666.833.833 0 0 0 0-1.666Z" fill="#89725B"/></svg>