<svg xmlns="http://www.w3.org/2000/svg" width="185" height="26" fill="none"><path fill="#89725B" d="M2.652 11.564a.554.554 0 0 0-.543.562v7.968c0 .305.246.553.552.553h4.101a.554.554 0 0 0 0-1.108H3.214v-7.413a.554.554 0 0 0-.562-.562Z"/><path fill="#89725B" d="m16.709 4.613 9.199 7.244c.457.363.4.724.198.97-.29.358-.623.248-.862.059l-8.191-6.45a.558.558 0 0 0-.687 0l-8.19 6.45c-.361.283-.612.197-.864-.059-.223-.225-.255-.607.202-.97l9.195-7.244Zm6.855-2.758L32.05 8.51c.41.323.356.626.18.833-.264.309-.53.218-.745.05l-7.578-5.945a.554.554 0 0 0-.683 0l-3.11 2.438-.844-.662 4.294-3.368Zm-13.706 0L14.15 5.22l-.843.663L10.2 3.447a.554.554 0 0 0-.682 0L1.94 9.392c-.32.249-.52.17-.745-.05-.194-.19-.232-.51.179-.833l8.484-6.654ZM9.518.718.692 7.641c-.81.636-.863 1.7-.395 2.35.234.325.588.57 1.016.64.427.072.906-.054 1.31-.37l7.235-5.675 2.558 2.003L6.83 10.99c-.862.678-.914 1.79-.421 2.479a1.66 1.66 0 0 0 1.072.682c.448.076.951-.059 1.379-.394l7.848-6.182 7.85 6.182c.428.335.93.47 1.378.394.451-.074.826-.338 1.072-.682.494-.688.442-1.802-.418-2.479l-5.584-4.4 2.558-2.004 7.238 5.675c.406.316.882.442 1.31.37.427-.07.782-.316 1.017-.64.466-.652.414-1.715-.396-2.35L23.906.717c-.25-.194-.475-.161-.682 0l-4.846 3.799-1.325-1.046c-.249-.193-.481-.161-.687 0l-1.321 1.043L10.2.718c-.248-.194-.473-.161-.682 0ZM8.71 15.136a.553.553 0 0 0-.542.563v9.077a.551.551 0 0 0 .55.556h6.006a.553.553 0 0 0 .553-.556v-5.903c0-.797.628-1.423 1.432-1.423.803 0 1.433.626 1.433 1.423v5.902a.551.551 0 0 0 .553.556H24.7a.552.552 0 0 0 .555-.556v-9.077a.552.552 0 1 0-1.106 0v8.524h-4.901v-5.35a2.54 2.54 0 0 0-2.538-2.529 2.541 2.541 0 0 0-2.538 2.53v5.35H9.272v-8.524a.556.556 0 0 0-.562-.563Z"/><path fill="#89725B" d="M30.748 11.564a.556.556 0 0 0-.545.562v7.413h-3.546a.555.555 0 1 0 0 1.108h4.1a.554.554 0 0 0 .553-.553v-7.968a.555.555 0 0 0-.561-.562ZM40.716.845v24.152c0 .174-.116.29-.29.29s-.29-.116-.29-.29V.874c0-.174.116-.29.29-.29s.29.116.29.261ZM57.452 8.428v4.127c-.23.132-.498.26-.806.386a10.42 10.42 0 0 1-2 .596c-.342.067-.663.1-.965.1-.962 0-1.828-.13-2.596-.39a5 5 0 0 1-1.963-1.187c-.543-.537-.961-1.213-1.255-2.03-.293-.816-.44-1.79-.44-2.919 0-1.177.17-2.181.512-3.012.344-.827.8-1.503 1.371-2.026A5.229 5.229 0 0 1 51.257.937a7.202 7.202 0 0 1 2.227-.353c.794 0 1.464.05 2.009.151a5.471 5.471 0 0 1 1.434.462c0 .182-.005.404-.016.667a21.219 21.219 0 0 1-.256 2.433h-.466L55.25 1.7c-.13-.07-.353-.117-.666-.142-.313-.026-.62-.038-.919-.038-.601 0-1.172.112-1.711.335a3.714 3.714 0 0 0-1.418 1.028c-.403.461-.724 1.044-.965 1.75-.24.701-.36 1.527-.36 2.478 0 .853.117 1.622.352 2.307.235.685.56 1.27.973 1.757.417.487.903.863 1.46 1.129.559.263 1.163.394 1.812.394.24 0 .475-.024.704-.071.23-.048.44-.105.63-.172.193-.065.352-.133.478-.206.126-.072.214-.133.264-.18V8.428a4.354 4.354 0 0 1-.893-.164 17.228 17.228 0 0 1-.84-.272v-.52h4.417v.52c-.12.087-.264.165-.432.235-.167.072-.395.14-.683.201ZM64.05 7.832v4.631c.276.062.54.126.792.193.252.064.498.145.738.243v.52h-4.74v-.52a4.51 4.51 0 0 1 .756-.272c.24-.06.48-.114.721-.164V1.776a6.904 6.904 0 0 1-1.476-.453v-.52h1.585c.481 0 1.007-.026 1.577-.076.57-.047 1.127-.071 1.67-.071.587 0 1.136.065 1.648.197.509.134.95.345 1.326.633.371.288.662.655.872 1.1.21.444.315.98.315 1.606 0 .875-.231 1.602-.693 2.18-.464.577-1.092.99-1.883 1.242a62.378 62.378 0 0 0 1.623 2.433 65.9 65.9 0 0 0 1.766 2.4l.973.524v.448h-2.18l-.684-.503a21.081 21.081 0 0 1-.923-1.237c-.277-.403-.536-.811-.776-1.225a23.841 23.841 0 0 1-.675-1.263c-.21-.425-.423-.878-.638-1.359h-1.695Zm1.224-6.237c-.288 0-.525.006-.713.017a3.094 3.094 0 0 0-.512.071v5.39h1.296c.831 0 1.49-.264 1.976-.793.487-.528.73-1.224.73-2.088 0-.89-.259-1.545-.776-1.968-.517-.419-1.184-.629-2-.629ZM73.764.803h8.548a51.71 51.71 0 0 1-.063 1.45c-.03.487-.077.977-.138 1.469h-.466l-.742-1.984h-3.93v4.777h2.94l.705-1.333h.448a30.412 30.412 0 0 1 0 3.64h-.448l-.705-1.367h-2.94v5.03h4.148l.885-2.165h.449c.084.503.144 1.013.18 1.53.036.518.042 1.041.017 1.57h-8.888v-.52a6.05 6.05 0 0 1 1.48-.437V1.776a8.015 8.015 0 0 1-.738-.193 8.018 8.018 0 0 1-.742-.26v-.52ZM85.701.803h8.544c-.011.478-.032.962-.063 1.45-.03.487-.075.977-.134 1.469h-.47l-.738-1.984h-3.93v4.777h2.936l.705-1.333h.453c.07 1.188.07 2.402 0 3.64h-.453l-.705-1.367H88.91v5.03h4.144l.885-2.165h.449c.087.503.147 1.013.18 1.53.037.518.044 1.041.021 1.57h-8.888v-.52c.42-.194.912-.339 1.477-.437V1.776a8.015 8.015 0 0 1-.739-.193 8.231 8.231 0 0 1-.738-.26v-.52ZM105.893 1.323v-.52h3.892v.52a5.432 5.432 0 0 1-1.476.721v11.594h-1.028l-6.547-9.933-.701-1.41h-.054l.163 1.41v8.561c.493.131.955.342 1.389.633v.52h-3.897v-.52c.216-.134.448-.251.696-.352.246-.104.508-.197.785-.281V1.936c-.24-.096-.478-.198-.713-.307a11.142 11.142 0 0 1-.659-.323V.803h3.045l5.68 8.56.83 1.552h.071l-.088-1.552V2.044a11.104 11.104 0 0 1-.729-.344 7.655 7.655 0 0 1-.659-.377ZM118.099 1.323v-.52h4.937v.52c-.288.109-.576.202-.864.28a6.296 6.296 0 0 1-.864.173v10.708h4.144l1.065-2.902h.47a22.497 22.497 0 0 1 .168 1.9 19.415 19.415 0 0 1 .008 1.937h-9.064v-.52c.288-.134.552-.23.793-.29.24-.06.468-.11.683-.146V1.776a6.652 6.652 0 0 1-.792-.193 4.702 4.702 0 0 1-.684-.26ZM134.394 12.9v.52h-4.614v-.52a5.17 5.17 0 0 1 1.443-.437V1.776a9.33 9.33 0 0 1-1.443-.453v-.52h4.614v.52c-.215.098-.45.184-.704.26a8.013 8.013 0 0 1-.739.193v10.687c.252.05.505.11.76.18.251.073.479.159.683.256ZM143.861 9.976l2.668-8.2a9.525 9.525 0 0 1-.814-.21c-.252-.078-.498-.16-.738-.243v-.52h4.056v.52c-.35.193-.782.344-1.296.453l-4.077 11.643-.99.219-4.597-11.862a9.253 9.253 0 0 1-.705-.21c-.226-.078-.449-.16-.667-.243v-.52h4.778v.52a8.347 8.347 0 0 1-.684.243 9.923 9.923 0 0 1-.793.21l3.083 8.238.378 1.443h.037l.361-1.481ZM155.958 12.9v.52h-4.618v-.52a5.21 5.21 0 0 1 1.443-.437V1.776a6.897 6.897 0 0 1-.722-.193 9.31 9.31 0 0 1-.721-.26v-.52h4.618v.52a5.75 5.75 0 0 1-.705.26 8.078 8.078 0 0 1-.738.193v10.687c.252.05.503.11.755.18.254.073.484.159.688.256ZM167.044 1.323v-.52h3.892v.52a5.432 5.432 0 0 1-1.476.721v11.594h-1.028l-6.543-9.933-.705-1.41h-.055l.164 1.41v8.561c.492.131.955.342 1.388.633v.52h-3.896v-.52c.218-.134.45-.251.696-.352.246-.104.508-.197.784-.281V1.936c-.24-.096-.478-.198-.713-.307a11.062 11.062 0 0 1-.658-.323V.803h3.049l5.679 8.56.827 1.552h.071l-.088-1.552V2.044a12.5 12.5 0 0 1-.73-.344 7.634 7.634 0 0 1-.658-.377ZM183.88 8.428v4.127c-.227.132-.494.26-.801.386a10.436 10.436 0 0 1-2.001.596 5.01 5.01 0 0 1-.965.1c-.962 0-1.827-.13-2.596-.39a5.002 5.002 0 0 1-1.963-1.187c-.542-.537-.96-1.213-1.254-2.03-.294-.816-.441-1.79-.441-2.919 0-1.177.171-2.181.512-3.012.344-.827.801-1.503 1.372-2.026a5.225 5.225 0 0 1 1.946-1.136 7.199 7.199 0 0 1 2.227-.353c.794 0 1.464.05 2.009.151a5.473 5.473 0 0 1 1.435.462c0 .182-.006.404-.017.667-.014.265-.032.542-.054.83a21.399 21.399 0 0 1-.202 1.603h-.465l-.94-2.597c-.131-.07-.354-.117-.667-.142a11.454 11.454 0 0 0-.918-.038c-.602 0-1.172.112-1.712.335a3.71 3.71 0 0 0-1.417 1.028c-.403.461-.725 1.044-.965 1.75-.241.701-.361 1.527-.361 2.478 0 .853.118 1.622.352 2.307.235.685.56 1.27.974 1.757.413.487.9.863 1.459 1.129a4.204 4.204 0 0 0 1.812.394c.241 0 .476-.024.705-.071a4.87 4.87 0 0 0 .629-.172c.193-.065.352-.133.478-.206.126-.072.214-.133.264-.18V8.428a4.347 4.347 0 0 1-.893-.164 17.483 17.483 0 0 1-.839-.272v-.52H185v.52a2.14 2.14 0 0 1-.432.235c-.168.072-.397.14-.688.201Z"/><path fill="#A28B74" d="M53.1 24.602a2.8 2.8 0 0 1-.625-.067 2.093 2.093 0 0 1-.5-.164c0-.061.005-.133.013-.214a7.362 7.362 0 0 1 .134-.768h.156l.243.823a.699.699 0 0 0 .1.033c.045.009.094.017.148.025a1.4 1.4 0 0 0 .163.017c.056.006.11.009.16.009.145 0 .278-.024.398-.072a.984.984 0 0 0 .306-.193.809.809 0 0 0 .202-.28.911.911 0 0 0 .07-.361.917.917 0 0 0-.075-.395.691.691 0 0 0-.197-.256.708.708 0 0 0-.285-.134 1.317 1.317 0 0 0-.336-.042l-.453.063a.737.737 0 0 1-.004-.34h.185a4.235 4.235 0 0 0 .478-.029.812.812 0 0 0 .415-.302.851.851 0 0 0 .143-.49c0-.258-.074-.458-.222-.6-.146-.14-.349-.21-.609-.21-.128 0-.23.01-.306.03a.344.344 0 0 0-.155.079l-.306.717h-.151a4.818 4.818 0 0 1-.067-.893.813.813 0 0 1 .214-.114 2.397 2.397 0 0 1 .54-.113 2.733 2.733 0 0 1 .742.03c.163.027.31.08.441.155a.938.938 0 0 1 .32.31c.08.132.12.3.12.503a.992.992 0 0 1-.171.558c-.115.176-.298.313-.55.411v.021c.118.02.228.055.332.105a.895.895 0 0 1 .272.193c.076.081.136.18.18.298.045.117.068.256.068.415 0 .213-.042.397-.126.554a1.103 1.103 0 0 1-.34.386c-.14.103-.302.179-.486.226-.188.05-.38.076-.58.076ZM58.003 24.358v.172H56.7v-.172c.14-.061.28-.107.423-.138l1.485-3.871h.168l1.489 3.871c.078.014.155.03.23.05.076.02.148.05.215.088v.172h-1.502v-.172c.078-.03.158-.057.24-.08a1.98 1.98 0 0 1 .238-.058l-.398-1.078h-1.401l-.39 1.078c.165.023.334.069.507.139Zm.449-2.751-.449 1.233h1.183l-.461-1.246-.114-.507H58.6l-.147.52ZM63.687 20.726v3.494c.193.03.38.077.562.139v.171h-1.607v-.172c.157-.061.318-.107.483-.138v-3.485a2.204 2.204 0 0 1-.483-.147v-.168h2.748a9.776 9.776 0 0 1-.017.587l-.017.319a5.49 5.49 0 0 1-.03.28h-.154l-.307-.88h-1.178ZM67.52 22.475c0-.305.042-.588.126-.851a1.99 1.99 0 0 1 .365-.676c.16-.187.354-.334.583-.44.232-.106.495-.16.789-.16.293 0 .556.054.788.16.23.106.424.253.583.44.16.19.281.416.365.676.084.263.126.546.126.851 0 .305-.042.587-.126.848a1.99 1.99 0 0 1-.365.675c-.16.19-.353.338-.583.444-.232.107-.495.16-.788.16-.294 0-.557-.053-.789-.16a1.664 1.664 0 0 1-.583-.444 1.99 1.99 0 0 1-.365-.675 2.746 2.746 0 0 1-.126-.848Zm.63 0c0 .25.026.484.08.705.052.224.132.416.238.579.104.165.237.295.399.39.16.098.35.147.57.147a.922.922 0 0 0 .52-.147c.149-.095.272-.225.37-.39.094-.163.166-.355.213-.58.05-.22.076-.455.076-.704 0-.252-.025-.488-.076-.709a1.8 1.8 0 0 0-.235-.578 1.206 1.206 0 0 0-.398-.39 1.108 1.108 0 0 0-.57-.143c-.216 0-.399.047-.55.142a1.1 1.1 0 0 0-.369.39c-.092.165-.16.358-.206.58a3.795 3.795 0 0 0-.063.708ZM74.533 22.92v1.3c.107.011.206.03.298.055.095.025.183.053.264.084v.171H73.49v-.172c.078-.039.158-.068.24-.088.08-.02.16-.036.238-.05v-3.485a1.669 1.669 0 0 1-.478-.147v-.168h.528c.157 0 .326-.009.508-.025a7 7 0 0 1 .528-.021c.194 0 .382.02.567.059.184.041.348.111.49.21.143.097.258.227.344.39.09.162.135.364.135.607 0 .233-.045.43-.135.592-.092.165-.213.3-.364.407a1.475 1.475 0 0 1-.512.23c-.193.05-.39.076-.592.076h-.092c-.042 0-.087-.001-.134-.004l-.134-.009a.485.485 0 0 1-.093-.012Zm.399-2.244a2.533 2.533 0 0 0-.399.03v1.903a.22.22 0 0 0 .084.013 1.824 1.824 0 0 0 .24.017h.092c.137 0 .267-.018.39-.055a.84.84 0 0 0 .537-.49c.056-.126.084-.277.084-.454 0-.321-.091-.562-.273-.72-.182-.163-.433-.244-.755-.244ZM78.803 22.475c0-.305.042-.588.126-.851a2.03 2.03 0 0 1 .36-.676c.16-.187.356-.334.588-.44.23-.106.49-.16.785-.16.293 0 .556.054.788.16.232.106.426.253.583.44.16.19.281.416.365.676.084.263.126.546.126.851 0 .305-.042.587-.126.848a1.99 1.99 0 0 1-.365.675c-.157.19-.35.338-.583.444-.232.107-.495.16-.788.16-.294 0-.556-.053-.785-.16a1.654 1.654 0 0 1-.587-.444 2.03 2.03 0 0 1-.36-.675 2.746 2.746 0 0 1-.127-.848Zm.625 0c0 .25.027.484.08.705.053.224.133.416.24.579.105.165.238.295.398.39.162.098.352.147.57.147a.942.942 0 0 0 .524-.147c.148-.095.27-.225.365-.39.095-.163.168-.355.218-.58a3.34 3.34 0 0 0 .072-.704c0-.252-.025-.488-.076-.709a1.795 1.795 0 0 0-.235-.578 1.205 1.205 0 0 0-.398-.39 1.094 1.094 0 0 0-.57-.143c-.216 0-.4.047-.55.142a1.065 1.065 0 0 0-.365.39 1.839 1.839 0 0 0-.206.58 3.572 3.572 0 0 0-.067.708ZM87.716 24.224h.667a5.119 5.119 0 0 1-.037.592l-.042.323a3.952 3.952 0 0 1-.038.277h-.151l-.247-.886h-2.895l-.247.886h-.147a2.131 2.131 0 0 1-.05-.269 5.867 5.867 0 0 1-.034-.327 7.237 7.237 0 0 1-.025-.323 3.419 3.419 0 0 1-.013-.273h.487c.1-.165.197-.376.29-.633a6.66 6.66 0 0 0 .23-.843c.064-.308.116-.632.155-.973.04-.341.059-.678.059-1.011-.1-.02-.201-.042-.302-.067-.1-.028-.2-.065-.298-.11v-.167h3.12v.168a2.418 2.418 0 0 1-.482.147v3.49Zm-2.403 0h1.837v-3.498h-1.132c-.023.481-.06.91-.114 1.288-.053.377-.114.71-.184.998a6.347 6.347 0 0 1-.21.73 5.056 5.056 0 0 1-.197.482ZM91.898 24.358v.172H90.41v-.172c.157-.061.318-.107.483-.138v-3.485a1.437 1.437 0 0 1-.483-.147v-.168h1.49v.168a1.108 1.108 0 0 1-.215.088 1.504 1.504 0 0 1-.226.059v1.535h1.841v-1.535a3.88 3.88 0 0 1-.23-.063 1.37 1.37 0 0 1-.21-.084v-.168h1.485v.168a.997.997 0 0 1-.231.092c-.084.022-.166.04-.248.055v3.485c.09.014.175.034.256.059.084.022.158.049.223.08v.171h-1.485v-.172c.142-.061.29-.107.44-.138v-1.644h-1.841v1.644c.078.014.154.034.226.059.076.022.147.049.214.08ZM96.588 22.475c0-.305.042-.588.126-.851a1.99 1.99 0 0 1 .364-.676c.16-.187.354-.334.583-.44.233-.106.495-.16.789-.16.294 0 .556.054.788.16.23.106.424.253.584.44.159.19.281.416.364.676.084.263.126.546.126.851 0 .305-.042.587-.126.848-.083.26-.205.485-.364.675-.16.19-.354.338-.584.444-.232.107-.494.16-.788.16-.294 0-.556-.053-.789-.16a1.664 1.664 0 0 1-.583-.444 1.99 1.99 0 0 1-.365-.675 2.746 2.746 0 0 1-.125-.848Zm.629 0c0 .25.026.484.08.705.053.224.132.416.239.579.103.165.236.295.398.39.16.098.35.147.57.147a.922.922 0 0 0 .52-.147c.149-.095.272-.225.37-.39.095-.163.166-.355.214-.58.05-.22.075-.455.075-.704 0-.252-.025-.488-.075-.709a1.795 1.795 0 0 0-.235-.578 1.205 1.205 0 0 0-.399-.39 1.108 1.108 0 0 0-.57-.143c-.215 0-.399.047-.55.142a1.1 1.1 0 0 0-.369.39 1.99 1.99 0 0 0-.205.58 3.804 3.804 0 0 0-.063.708ZM102.552 20.42h2.785c-.003.156-.01.313-.021.47-.008.16-.022.32-.042.482h-.155l-.239-.646h-1.279v1.556h.956l.227-.436h.146c.026.389.026.784 0 1.187h-.146l-.227-.449h-.956v1.64h1.35l.286-.704h.146a4.898 4.898 0 0 1 .067 1.01h-2.898v-.172c.137-.061.298-.107.482-.138v-3.485a2.321 2.321 0 0 1-.482-.147v-.168ZM113.688 24.19l.277-.73h.151c.02.11.038.248.055.416.014.165.016.326.008.482a.692.692 0 0 1-.21.114c-.081.03-.167.056-.26.075-.092.02-.186.034-.281.042-.098.009-.19.013-.277.013-.327 0-.62-.044-.88-.13a1.692 1.692 0 0 1-.655-.382 1.761 1.761 0 0 1-.411-.663 2.858 2.858 0 0 1-.142-.952c0-.383.053-.709.159-.977.106-.268.249-.488.428-.659.179-.17.389-.295.629-.373.238-.078.488-.117.751-.117.257 0 .474.016.65.05.176.034.331.084.466.151 0 .061-.002.134-.005.218a7.75 7.75 0 0 1-.021.268 2.888 2.888 0 0 1-.029.277c-.011.09-.022.17-.034.244h-.151l-.306-.843a.516.516 0 0 0-.214-.047c-.1-.008-.2-.012-.297-.012-.196 0-.381.036-.554.109a1.206 1.206 0 0 0-.457.331 1.675 1.675 0 0 0-.315.57c-.078.23-.117.5-.117.81 0 .277.035.529.105.755.069.224.171.415.306.575.131.16.293.28.486.365.19.084.407.126.65.126.129 0 .237-.01.323-.03.087-.02.144-.044.172-.075ZM118.797 24.358v.172h-1.652v-.172c.086-.03.174-.057.264-.08a1.96 1.96 0 0 1 .285-.058v-3.494h-.902l-.31.839h-.147a7.52 7.52 0 0 1-.05-.575c-.006-.103-.01-.205-.013-.306a4.3 4.3 0 0 1-.008-.264h3.414c0 .078-.003.166-.008.264-.003.098-.007.199-.013.302l-.017.306a2.403 2.403 0 0 1-.029.273h-.151l-.306-.839h-.898v3.494l.285.059c.087.02.172.046.256.08ZM122.765 22.92v1.3c.106.011.207.03.302.055.092.025.18.053.264.084v.171h-1.61v-.172c.078-.039.158-.068.239-.088.084-.02.165-.036.243-.05v-3.485a1.708 1.708 0 0 1-.252-.06 2.27 2.27 0 0 1-.23-.087v-.168h.528c.157 0 .327-.009.512-.025a6.99 6.99 0 0 1 .528-.021c.191 0 .378.02.562.059.185.041.349.111.491.21.143.097.259.227.348.39.087.162.13.364.13.607 0 .233-.044.43-.134.592-.089.165-.21.3-.361.407a1.524 1.524 0 0 1-.515.23c-.191.05-.388.076-.592.076h-.092c-.039 0-.083-.001-.13-.004a15.99 15.99 0 0 1-.134-.009.514.514 0 0 1-.097-.012Zm.399-2.244a2.48 2.48 0 0 0-.399.03v1.903c.02.009.049.013.088.013a1.633 1.633 0 0 0 .235.017h.097c.137 0 .265-.018.385-.055a.877.877 0 0 0 .542-.49c.053-.126.079-.277.079-.454 0-.321-.091-.562-.272-.72-.182-.163-.434-.244-.755-.244ZM127.035 22.475c0-.305.042-.588.126-.851a1.98 1.98 0 0 1 .365-.676c.159-.187.354-.334.583-.44.232-.106.495-.16.788-.16.294 0 .555.054.785.16.232.106.428.253.587.44.157.19.278.416.365.676.084.263.126.546.126.851 0 .305-.042.587-.126.848-.087.26-.208.485-.365.675a1.65 1.65 0 0 1-.587.444c-.23.107-.491.16-.785.16-.293 0-.556-.053-.788-.16a1.663 1.663 0 0 1-.583-.444 1.98 1.98 0 0 1-.365-.675 2.743 2.743 0 0 1-.126-.848Zm.629 0c0 .25.027.484.08.705.053.224.131.416.235.579.106.165.24.295.402.39.16.098.349.147.567.147a.929.929 0 0 0 .524-.147c.148-.095.271-.225.369-.39.095-.163.166-.355.214-.58.05-.22.076-.455.076-.704 0-.252-.026-.488-.076-.709a1.915 1.915 0 0 0-.235-.578 1.184 1.184 0 0 0-.403-.39 1.084 1.084 0 0 0-.566-.143 1.01 1.01 0 0 0-.549.142 1.1 1.1 0 0 0-.369.39 1.975 1.975 0 0 0-.206.58 3.795 3.795 0 0 0-.063.708ZM134.489 24.358v.172H133v-.172c.156-.07.317-.116.482-.138v-3.485a10.47 10.47 0 0 1-.239-.063 1.758 1.758 0 0 1-.243-.084v-.168h1.489v.168a1.303 1.303 0 0 1-.202.084c-.07.022-.149.043-.239.063v2.55l-.067.44.281-.466 1.724-2.382v-.142a2.602 2.602 0 0 1-.478-.147v-.168h1.493v.168c-.07.033-.147.061-.231.084a5.677 5.677 0 0 1-.251.063v3.485c.184.03.345.077.482.139v.171h-1.493v-.172c.064-.027.133-.054.205-.08.076-.024.157-.044.244-.058v-2.546l.058-.44-.26.44-1.745 2.416v.13c.09.014.175.034.256.059.081.022.155.049.223.08ZM141.573 24.358v.172h-1.648v-.172a2.963 2.963 0 0 1 .545-.138v-3.494h-.898l-.31.839h-.147a7.52 7.52 0 0 1-.05-.575l-.017-.306a8.59 8.59 0 0 1-.004-.264h3.41c0 .078-.002.166-.004.264a11.065 11.065 0 0 1-.034.608 3.993 3.993 0 0 1-.025.273h-.151l-.306-.839h-.898v3.494l.285.059c.087.02.171.046.252.08ZM144.501 20.42h2.781c-.003.156-.01.313-.021.47-.009.16-.023.32-.042.482h-.156l-.239-.646h-1.279v1.556h.956l.231-.436h.147c.022.389.022.784 0 1.187h-.147l-.231-.449h-.956v1.64h1.351l.285-.704h.147c.028.165.047.331.058.499.014.168.017.338.009.512h-2.894v-.172c.137-.062.296-.108.478-.139v-3.485a2.427 2.427 0 0 1-.478-.147v-.168ZM150.696 20.764a2.107 2.107 0 0 1-.6-.176v-.168h3.087v.168a1.44 1.44 0 0 1-.482.146v3.486c.184.03.345.077.482.139v.171h-1.489v-.172c.07-.03.141-.057.214-.08l.231-.058v-3.494h-1.099a19.627 19.627 0 0 1-.084 1.527 8.554 8.554 0 0 1-.155 1.006 3.135 3.135 0 0 1-.214.63 2.76 2.76 0 0 1-.264.42.716.716 0 0 1-.286.221.861.861 0 0 1-.331.072 1.22 1.22 0 0 1-.164-.315 1.007 1.007 0 0 1-.063-.197.963.963 0 0 1-.029-.172l.088-.147.675.126c.059-.098.117-.228.172-.39.056-.16.108-.364.156-.612.044-.25.081-.548.109-.898.03-.347.046-.758.046-1.233ZM156.04 24.53h-.755v-.172a1.69 1.69 0 0 1 .482-.138v-3.485a2.242 2.242 0 0 1-.482-.147v-.168h1.564v.168c-.07.033-.15.063-.239.088a2.035 2.035 0 0 1-.277.059v1.346a7.205 7.205 0 0 1 .529-.042c.195 0 .384.018.566.054.184.034.348.097.491.19.139.089.253.212.339.368.087.157.13.357.13.6a1.172 1.172 0 0 1-.495.99 1.466 1.466 0 0 1-.511.23 2.414 2.414 0 0 1-.717.072c-.059 0-.124-.001-.193-.004a93 93 0 0 0-.227-.009h-.205Zm.696-2.185c-.098 0-.176.002-.235.004a.553.553 0 0 0-.168.026v1.845a.46.46 0 0 0 .084.013c.036.002.077.004.122.004.042.003.082.004.121.004h.088c.137 0 .266-.02.386-.059a.89.89 0 0 0 .323-.18.794.794 0 0 0 .218-.306 1.11 1.11 0 0 0 .084-.453c0-.316-.091-.545-.272-.688-.182-.14-.432-.21-.751-.21ZM163.178 24.19l.277-.73h.151c.02.11.038.248.055.416.017.165.021.326.012.482a.67.67 0 0 1-.214.114c-.081.03-.167.056-.26.075-.092.02-.186.034-.281.042a3.099 3.099 0 0 1-.272.013c-.33 0-.624-.044-.881-.13a1.652 1.652 0 0 1-.654-.382 1.69 1.69 0 0 1-.411-.663 2.777 2.777 0 0 1-.147-.952c0-.383.053-.709.159-.977.106-.268.249-.488.428-.659.182-.17.391-.295.629-.373.241-.078.491-.117.751-.117s.478.016.654.05c.176.034.33.084.462.151a6.344 6.344 0 0 1-.088 1.007h-.151l-.307-.843a.497.497 0 0 0-.214-.047 3.547 3.547 0 0 0-.297-.012c-.196 0-.381.036-.554.109a1.254 1.254 0 0 0-.457.331 1.675 1.675 0 0 0-.315.57c-.078.23-.117.5-.117.81 0 .277.035.529.105.755.07.224.172.415.306.575.134.16.296.28.486.365.193.084.411.126.655.126.128 0 .236-.01.323-.03.084-.02.139-.044.167-.075ZM168.287 24.358v.172h-1.648v-.172a2.963 2.963 0 0 1 .545-.138v-3.494h-.898l-.31.839h-.147a2.136 2.136 0 0 1-.029-.268 9.882 9.882 0 0 1-.021-.307l-.017-.306a8.59 8.59 0 0 1-.004-.264h3.41c0 .078-.001.166-.004.264l-.017.302-.017.306a3.445 3.445 0 0 1-.025.273h-.155l-.302-.839h-.902v3.494c.104.02.199.04.285.059.09.02.175.046.256.08ZM171.777 24.53h-.566v-.172c.156-.072.317-.118.482-.138v-3.485a2.242 2.242 0 0 1-.482-.147v-.168h.625a48.008 48.008 0 0 1 .427-.017c.076-.005.156-.01.24-.012.086-.006.184-.009.293-.009.157 0 .316.013.478.038.165.028.312.077.441.147.131.07.239.168.323.293a.924.924 0 0 1 .121.5c0 .1-.015.202-.046.306a.987.987 0 0 1-.734.663v.02c.118.02.234.053.348.101.118.048.221.112.311.193a.935.935 0 0 1 .306.717c0 .213-.048.395-.143.546-.095.153-.218.28-.369.377-.148.098-.319.17-.512.214a2.562 2.562 0 0 1-.583.067 7.1 7.1 0 0 1-.461-.017 7.748 7.748 0 0 0-.499-.017Zm1.002-.272c.143 0 .276-.021.399-.063a.883.883 0 0 0 .314-.18.781.781 0 0 0 .21-.277.793.793 0 0 0 .076-.348.748.748 0 0 0-.093-.39.656.656 0 0 0-.243-.248 1.141 1.141 0 0 0-.361-.126 2.553 2.553 0 0 0-.419-.033h-.44v1.619c.055.017.121.03.197.038.075.005.195.008.36.008Zm-.557-1.971h.293a4.016 4.016 0 0 0 .466-.03.956.956 0 0 0 .44-.302.736.736 0 0 0 .176-.49c0-.258-.078-.452-.235-.584-.153-.128-.359-.193-.616-.193a4.81 4.81 0 0 0-.524.026v1.573ZM176.726 22.475c0-.305.042-.588.126-.851.084-.26.206-.485.365-.676.159-.187.354-.334.583-.44.232-.106.495-.16.789-.16.293 0 .555.054.784.16.232.106.428.253.587.44.157.19.277.416.361.676.087.263.13.546.13.851 0 .305-.043.587-.13.848-.084.26-.204.485-.361.675a1.65 1.65 0 0 1-.587.444c-.229.107-.491.16-.784.16-.294 0-.557-.053-.789-.16a1.663 1.663 0 0 1-.583-.444 1.998 1.998 0 0 1-.365-.675 2.743 2.743 0 0 1-.126-.848Zm.629 0c0 .25.027.484.08.705.053.224.132.416.235.579.106.165.241.295.403.39.159.098.348.147.566.147a.929.929 0 0 0 .524-.147c.148-.095.27-.225.365-.39.098-.163.171-.355.218-.58.051-.22.076-.455.076-.704 0-.252-.025-.488-.076-.709a1.915 1.915 0 0 0-.235-.578 1.19 1.19 0 0 0-.402-.39 1.086 1.086 0 0 0-.566-.143c-.216 0-.399.047-.55.142a1.1 1.1 0 0 0-.369.39 2.004 2.004 0 0 0-.206.58 3.795 3.795 0 0 0-.063.708Z"/></svg>