<svg width="185" height="26" viewBox="0 0 185 26" fill="none" xmlns="http://www.w3.org/2000/svg">
<path d="M2.65189 11.5639C2.34699 11.5706 2.10525 11.8207 2.10943 12.126V20.0939C2.10943 20.3993 2.35535 20.6473 2.66067 20.6473H6.76237C7.06727 20.6473 7.31528 20.3993 7.31528 20.0939C7.31528 19.787 7.06685 19.5389 6.76237 19.5389H3.214V12.126C3.21819 11.8144 2.96557 11.5593 2.65189 11.5639Z" fill="#89725B"/>
<path d="M16.709 4.61273L25.9078 11.8575C26.3654 12.2197 26.3089 12.5811 26.1065 12.8274C25.8166 13.1846 25.4833 13.0754 25.2437 12.886L17.0528 6.43627C16.8504 6.27901 16.5676 6.27901 16.3665 6.43627L8.17646 12.886C7.81468 13.1691 7.56374 13.0826 7.31154 12.8274C7.08945 12.6024 7.05683 12.2197 7.51397 11.8575L16.709 4.61273ZM23.564 1.85527L32.0505 8.50949C32.4604 8.83238 32.406 9.13518 32.2295 9.34221C31.9656 9.65088 31.7001 9.5597 31.4847 9.3924L23.9065 3.44709C23.7058 3.29067 23.4247 3.29067 23.2244 3.44709L20.1135 5.88461L19.2703 5.22253L23.564 1.85527ZM9.85779 1.85527L14.1515 5.22044L13.3083 5.88293L10.1999 3.44709C10.0013 3.29067 9.71894 3.29067 9.51776 3.44709L1.93964 9.3924C1.61927 9.64084 1.41935 9.56221 1.19475 9.34221C1.00111 9.15275 0.963464 8.83238 1.37376 8.50949L9.85779 1.85527ZM9.51776 0.718067L0.691607 7.64081C-0.118945 8.27695 -0.171226 9.34012 0.297205 9.99132C0.531002 10.3159 0.885253 10.5618 1.3127 10.6312C1.73972 10.7032 2.21861 10.5773 2.62221 10.2611L9.85821 4.58638L12.4158 6.58851L6.83056 10.9913C5.9694 11.6689 5.91712 12.7818 6.40981 13.4698C6.65573 13.8141 7.03299 14.078 7.48176 14.152C7.93012 14.2277 8.43326 14.093 8.86071 13.7576L16.7094 7.57556L24.5582 13.7576C24.9869 14.093 25.4887 14.2277 25.9371 14.152C26.388 14.078 26.7631 13.8141 27.0091 13.4698C27.5034 12.7818 27.4511 11.6685 26.5908 10.9913L21.0073 6.59102L23.5648 4.5868L30.8033 10.2615C31.2086 10.5777 31.6854 10.7036 32.1129 10.6317C32.5399 10.5618 32.8945 10.3163 33.13 9.99174C33.5964 9.34012 33.5441 8.27737 32.7339 7.64122L23.9065 0.718067C23.6556 0.524003 23.431 0.556625 23.2244 0.718067L18.3778 4.51654L17.0528 3.47093C16.8044 3.27771 16.5718 3.30991 16.3665 3.47093L15.0448 4.51445L10.1999 0.718067C9.9519 0.524003 9.72688 0.557044 9.51776 0.718067Z" fill="#89725B"/>
<path d="M8.71007 15.1365C8.40518 15.1432 8.16092 15.3938 8.16761 15.6987V24.7758C8.16511 25.0832 8.41354 25.3316 8.71886 25.3316H14.7244C15.0314 25.3316 15.2773 25.0832 15.2773 24.7758V18.8727C15.2773 18.0755 15.9047 17.4503 16.7085 17.4503C17.5124 17.4503 18.1423 18.0755 18.1423 18.8727V24.7753C18.1398 25.0828 18.3882 25.3312 18.6952 25.3312H24.6986C25.0056 25.3329 25.2566 25.0828 25.254 24.7753V15.6982C25.254 15.3933 25.0081 15.1449 24.7011 15.1449C24.3962 15.1449 24.1482 15.3933 24.1482 15.6982V24.222H19.2468V18.8727C19.2468 17.48 18.105 16.3432 16.7089 16.3432C15.3145 16.3432 14.1711 17.4804 14.1711 18.8727V24.2224H9.27219V15.6987C9.27595 15.3871 9.02125 15.1315 8.71007 15.1365Z" fill="#89725B"/>
<path d="M30.7485 11.5639C30.4432 11.5706 30.1993 11.8207 30.2035 12.126V19.5389H26.6572C26.3502 19.5389 26.1018 19.787 26.1018 20.0939C26.1018 20.3993 26.3502 20.6473 26.6572 20.6473H30.7564C31.0617 20.6473 31.3102 20.3993 31.3102 20.0939V12.126C31.3148 11.8144 31.0596 11.5593 30.7485 11.5639Z" fill="#89725B"/>
<path d="M40.7158 0.845118L40.7158 24.9974C40.7158 25.1711 40.6 25.287 40.4262 25.287C40.2525 25.287 40.1366 25.1711 40.1366 24.9974L40.1366 0.874077C40.1366 0.700319 40.2525 0.58448 40.4262 0.58448C40.6 0.58448 40.7158 0.700319 40.7158 0.845118Z" fill="#89725B"/>
<path d="M57.4517 8.42805V12.5554C57.2224 12.6868 56.9539 12.8154 56.6464 12.9413C56.3416 13.0671 56.0172 13.1817 55.6732 13.2852C55.3321 13.3887 54.9896 13.4726 54.6456 13.5369C54.3045 13.604 53.9829 13.6375 53.6809 13.6375C52.719 13.6375 51.8535 13.5075 51.0845 13.2475C50.3156 12.9902 49.6612 12.5945 49.1216 12.0604C48.5791 11.5235 48.161 10.8468 47.8674 10.0303C47.5738 9.21381 47.427 8.2407 47.427 7.111C47.427 5.93377 47.5976 4.9299 47.9387 4.0994C48.2827 3.2717 48.7399 2.5964 49.3103 2.07349C49.8807 1.55059 50.5295 1.17169 51.2565 0.936805C51.9836 0.701917 52.726 0.584473 53.4838 0.584473C54.2779 0.584473 54.9476 0.634806 55.4929 0.735472C56.041 0.838935 56.5191 0.99273 56.9274 1.19686C56.9274 1.37862 56.9218 1.60092 56.9106 1.86377C56.8966 2.12942 56.8784 2.40625 56.8561 2.69427C56.8309 2.98229 56.8001 3.26751 56.7638 3.54993C56.7274 3.83236 56.6911 4.08123 56.6547 4.29654H56.1892L55.2496 1.70019C55.1182 1.63028 54.8959 1.58275 54.5827 1.55758C54.2695 1.53241 53.9633 1.51983 53.6641 1.51983C53.0629 1.51983 52.4925 1.63168 51.9528 1.85538C51.4103 2.07629 50.9377 2.41884 50.5351 2.88302C50.1324 3.34441 49.8108 3.92743 49.5704 4.6321C49.3299 5.33396 49.2096 6.16027 49.2096 7.111C49.2096 7.96387 49.3271 8.73285 49.562 9.41794C49.7969 10.103 50.1212 10.6889 50.5351 11.1754C50.9517 11.662 51.4383 12.0381 51.9947 12.3037C52.554 12.5666 53.158 12.698 53.8067 12.698C54.0472 12.698 54.2821 12.6742 54.5114 12.6267C54.7407 12.5791 54.9504 12.5218 55.1406 12.4547C55.3335 12.3904 55.4929 12.3219 55.6187 12.2492C55.7446 12.1765 55.8326 12.1164 55.883 12.0688V8.42805C55.5698 8.40289 55.272 8.34836 54.9896 8.26447C54.7071 8.18058 54.4275 8.0897 54.1507 7.99183V7.47172H58.5674V7.99183C58.4472 8.07852 58.3032 8.15681 58.1354 8.22672C57.9676 8.29943 57.7397 8.36654 57.4517 8.42805Z" fill="#89725B"/>
<path d="M64.0494 7.83243V12.4631C64.3263 12.5246 64.5905 12.5889 64.8422 12.656C65.0939 12.7203 65.3399 12.8014 65.5804 12.8993V13.4194H60.8407V12.8993C61.1035 12.7791 61.3552 12.6882 61.5957 12.6267C61.8362 12.5679 62.0767 12.5134 62.3171 12.4631V1.77567C62.004 1.71416 61.7271 1.64425 61.4866 1.56595C61.2462 1.48766 61.0308 1.40656 60.8407 1.32268V0.802567H62.4262C62.9072 0.802567 63.4329 0.7774 64.0033 0.727067C64.5737 0.67953 65.1302 0.655762 65.6727 0.655762C66.2599 0.655762 66.8094 0.721475 67.3211 0.8529C67.83 0.987122 68.2718 1.19824 68.6465 1.48626C69.0184 1.77428 69.3092 2.14059 69.519 2.5852C69.7287 3.02981 69.8336 3.5653 69.8336 4.19166C69.8336 5.0669 69.6029 5.79394 69.1415 6.37277C68.6773 6.9488 68.0495 7.36265 67.2582 7.61432C67.7755 8.43083 68.3166 9.24176 68.8814 10.0471C69.4463 10.8524 70.0349 11.6522 70.6473 12.4463L71.6204 12.9706V13.4194H69.4393L68.7556 12.9161C68.4172 12.4938 68.1096 12.0814 67.8328 11.6787C67.556 11.2761 67.2973 10.8678 67.0568 10.4539C66.8192 10.0401 66.5941 9.61926 66.3815 9.19142C66.1718 8.76639 65.9593 8.31339 65.744 7.83243H64.0494ZM65.2742 1.59531C64.9862 1.59531 64.7485 1.60091 64.5612 1.61209C64.3766 1.62328 64.206 1.64705 64.0494 1.6834V7.07324H65.3455C66.176 7.07324 66.8345 6.80899 67.3211 6.28049C67.8076 5.75199 68.0509 5.05572 68.0509 4.19166C68.0509 3.30245 67.7923 2.64672 67.275 2.22448C66.7576 1.80504 66.0907 1.59531 65.2742 1.59531Z" fill="#89725B"/>
<path d="M73.7638 0.802612H82.312C82.2981 1.28078 82.2771 1.76453 82.2491 2.25388C82.2184 2.74044 82.1722 3.22979 82.1107 3.72193H81.6451L80.9027 1.73797H76.9725V6.51542H79.9128L80.6175 5.1816H81.0663C81.139 6.37002 81.139 7.5836 81.0663 8.82236H80.6175L79.9128 7.45498H76.9725V12.4841H81.1208L82.0058 10.3198H82.4546C82.5385 10.8231 82.5987 11.3334 82.635 11.8507C82.6714 12.368 82.677 12.891 82.6518 13.4195H73.7638V12.8993C74.186 12.7064 74.6796 12.561 75.2444 12.4631V1.77572C75.0039 1.72539 74.7579 1.66107 74.5062 1.58278C74.2517 1.50728 74.0043 1.42059 73.7638 1.32272V0.802612Z" fill="#89725B"/>
<path d="M85.7012 0.802612H94.2452C94.234 1.28078 94.2131 1.76453 94.1823 2.25388C94.1515 2.74044 94.1068 3.22979 94.0481 3.72193H93.5783L92.8401 1.73797H88.9099V6.51542H91.846L92.5507 5.1816H93.0037C93.0736 6.37002 93.0736 7.5836 93.0037 8.82236H92.5507L91.846 7.45498H88.9099V12.4841H93.054L93.939 10.3198H94.3878C94.4745 10.8231 94.5346 11.3334 94.5682 11.8507C94.6045 12.368 94.6115 12.891 94.5892 13.4195H85.7012V12.8993C86.1206 12.7064 86.6128 12.561 87.1776 12.4631V1.77572C86.9371 1.72539 86.6911 1.66107 86.4394 1.58278C86.1877 1.50728 85.9417 1.42059 85.7012 1.32272V0.802612Z" fill="#89725B"/>
<path d="M105.893 1.32272V0.802612H109.785V1.32272C109.282 1.66107 108.79 1.90155 108.309 2.04416V13.6376H107.281L100.734 3.70516L100.033 2.29583H99.9788L100.142 3.70516V12.266C100.635 12.3974 101.097 12.6085 101.531 12.8993V13.4195H97.6342V12.8993C97.8495 12.7651 98.0816 12.6477 98.3304 12.547C98.5765 12.4435 98.838 12.3499 99.1148 12.266V1.93511C98.8743 1.84003 98.6366 1.73797 98.4017 1.62891C98.1668 1.52266 97.9473 1.415 97.7432 1.30594V0.802612H100.788L106.468 9.36344L107.298 10.9154H107.369L107.281 9.36344V2.04416C107.027 1.93511 106.784 1.82046 106.552 1.70022C106.317 1.57998 106.097 1.45415 105.893 1.32272Z" fill="#89725B"/>
<path d="M118.099 1.32272V0.802612H123.036V1.32272C122.748 1.43178 122.46 1.52545 122.172 1.60375C121.884 1.68204 121.596 1.73937 121.308 1.77572V12.4841H125.452L126.517 9.58155H126.987C127.02 9.83322 127.053 10.124 127.083 10.454C127.114 10.784 127.138 11.1265 127.155 11.4816C127.174 11.8368 127.184 12.1821 127.184 12.5177C127.184 12.856 127.177 13.1566 127.163 13.4195H118.099V12.8993C118.387 12.7651 118.651 12.6686 118.892 12.6099C119.132 12.5484 119.36 12.4995 119.575 12.4631V1.77572C119.298 1.72539 119.034 1.66107 118.783 1.58278C118.531 1.50728 118.303 1.42059 118.099 1.32272Z" fill="#89725B"/>
<path d="M134.394 12.8993V13.4195H129.78V12.8993C130.247 12.6812 130.728 12.5358 131.223 12.4631V1.77572C130.983 1.72539 130.742 1.66107 130.502 1.58278C130.261 1.50728 130.021 1.42059 129.78 1.32272V0.802612H134.394V1.32272C134.179 1.42059 133.944 1.50728 133.69 1.58278C133.438 1.66107 133.192 1.72539 132.951 1.77572V12.4631C133.203 12.5135 133.456 12.5736 133.711 12.6435C133.962 12.7162 134.19 12.8015 134.394 12.8993Z" fill="#89725B"/>
<path d="M143.861 9.97583L146.529 1.77572C146.241 1.7142 145.969 1.64429 145.715 1.566C145.463 1.4877 145.217 1.40661 144.977 1.32272V0.802612H149.033V1.32272C148.683 1.51567 148.251 1.66666 147.737 1.77572L143.66 13.4195L142.67 13.6376L138.073 1.77572C137.832 1.7142 137.597 1.64429 137.368 1.566C137.142 1.4877 136.919 1.40661 136.701 1.32272V0.802612H141.479V1.32272C141.274 1.40661 141.047 1.4877 140.795 1.566C140.543 1.64429 140.279 1.7142 140.002 1.77572L143.085 10.0136L143.463 11.4565H143.5L143.861 9.97583Z" fill="#89725B"/>
<path d="M155.958 12.8993V13.4195H151.34V12.8993C151.809 12.6812 152.29 12.5358 152.783 12.4631V1.77572C152.542 1.72539 152.302 1.66107 152.061 1.58278C151.821 1.50728 151.58 1.42059 151.34 1.32272V0.802612H155.958V1.32272C155.74 1.42059 155.505 1.50728 155.253 1.58278C155.001 1.66107 154.755 1.72539 154.515 1.77572V12.4631C154.767 12.5135 155.018 12.5736 155.27 12.6435C155.524 12.7162 155.754 12.8015 155.958 12.8993Z" fill="#89725B"/>
<path d="M167.044 1.32272V0.802612H170.936V1.32272C170.433 1.66107 169.941 1.90155 169.46 2.04416V13.6376H168.432L161.889 3.70516L161.184 2.29583H161.129L161.293 3.70516V12.266C161.785 12.3974 162.248 12.6085 162.681 12.8993V13.4195H158.785V12.8993C159.003 12.7651 159.235 12.6477 159.481 12.547C159.727 12.4435 159.989 12.3499 160.265 12.266V1.93511C160.025 1.84003 159.787 1.73797 159.552 1.62891C159.317 1.52266 159.098 1.415 158.894 1.30594V0.802612H161.943L167.622 9.36344L168.449 10.9154H168.52L168.432 9.36344V2.04416C168.18 1.93511 167.937 1.82046 167.702 1.70022C167.467 1.57998 167.248 1.45415 167.044 1.32272Z" fill="#89725B"/>
<path d="M183.88 8.42805V12.5554C183.653 12.6868 183.386 12.8154 183.079 12.9413C182.774 13.0671 182.45 13.1817 182.106 13.2852C181.765 13.3887 181.422 13.4726 181.078 13.5369C180.737 13.604 180.415 13.6375 180.113 13.6375C179.151 13.6375 178.286 13.5075 177.517 13.2475C176.748 12.9902 176.094 12.5945 175.554 12.0604C175.012 11.5235 174.594 10.8468 174.3 10.0303C174.006 9.21381 173.859 8.2407 173.859 7.111C173.859 5.93377 174.03 4.9299 174.371 4.0994C174.715 3.2717 175.172 2.5964 175.743 2.07349C176.313 1.55059 176.962 1.17169 177.689 0.936805C178.416 0.701917 179.158 0.584473 179.916 0.584473C180.71 0.584473 181.38 0.634806 181.925 0.735472C182.473 0.838935 182.952 0.99273 183.36 1.19686C183.36 1.37862 183.354 1.60092 183.343 1.86377C183.329 2.12942 183.311 2.40625 183.289 2.69427C183.263 2.98229 183.233 3.26751 183.196 3.54993C183.16 3.83236 183.124 4.08123 183.087 4.29654H182.622L181.682 1.70019C181.551 1.63028 181.328 1.58275 181.015 1.55758C180.702 1.53241 180.396 1.51983 180.097 1.51983C179.495 1.51983 178.925 1.63168 178.385 1.85538C177.843 2.07629 177.37 2.41884 176.968 2.88302C176.565 3.34441 176.243 3.92743 176.003 4.6321C175.762 5.33396 175.642 6.16027 175.642 7.111C175.642 7.96387 175.76 8.73285 175.994 9.41794C176.229 10.103 176.554 10.6889 176.968 11.1754C177.381 11.662 177.868 12.0381 178.427 12.3037C178.986 12.5666 179.59 12.698 180.239 12.698C180.48 12.698 180.715 12.6742 180.944 12.6267C181.173 12.5791 181.383 12.5218 181.573 12.4547C181.766 12.3904 181.925 12.3219 182.051 12.2492C182.177 12.1765 182.265 12.1164 182.315 12.0688V8.42805C182.002 8.40289 181.704 8.34836 181.422 8.26447C181.14 8.18058 180.86 8.0897 180.583 7.99183V7.47172H185V7.99183C184.88 8.07852 184.736 8.15681 184.568 8.22672C184.4 8.29943 184.171 8.36654 183.88 8.42805Z" fill="#89725B"/>
<path d="M53.0999 24.6018C52.879 24.6018 52.6707 24.5794 52.475 24.5347C52.2764 24.4927 52.1101 24.4382 51.9758 24.3711C51.9758 24.3096 51.98 24.2383 51.9884 24.1572C51.9968 24.0761 52.008 23.9922 52.022 23.9055C52.036 23.816 52.0513 23.7279 52.0681 23.6413C52.0849 23.5518 52.1031 23.4679 52.1226 23.3896H52.2778L52.5211 24.2117C52.5463 24.2229 52.5798 24.2341 52.6218 24.2453C52.6665 24.2536 52.7154 24.262 52.7686 24.2704C52.8189 24.2788 52.8734 24.2844 52.9322 24.2872C52.9881 24.2928 53.0412 24.2956 53.0915 24.2956C53.237 24.2956 53.3698 24.2718 53.49 24.2243C53.6075 24.1767 53.7095 24.1124 53.7962 24.0313C53.8829 23.953 53.95 23.8594 53.9975 23.7503C54.0451 23.6385 54.0689 23.5182 54.0689 23.3896C54.0689 23.233 54.0437 23.1016 53.9933 22.9953C53.9458 22.8919 53.8801 22.8066 53.7962 22.7395C53.7151 22.6751 53.62 22.6304 53.511 22.6052C53.4047 22.5773 53.2929 22.5633 53.1754 22.5633L52.7224 22.6262C52.6945 22.506 52.6931 22.3927 52.7182 22.2865H52.9028C52.9699 22.2865 53.051 22.2837 53.1461 22.2781C53.2384 22.2725 53.3166 22.2655 53.381 22.2571C53.5599 22.1956 53.6983 22.0949 53.7962 21.9551C53.8913 21.8153 53.9388 21.6517 53.9388 21.4644C53.9388 21.2071 53.8647 21.0072 53.7165 20.8645C53.5711 20.7247 53.3684 20.6548 53.1083 20.6548C52.9797 20.6548 52.8776 20.6646 52.8021 20.6842C52.7266 20.7066 52.6749 20.7331 52.6469 20.7639L52.3407 21.4811H52.1897C52.1702 21.3749 52.1534 21.2406 52.1394 21.0785C52.1254 20.9135 52.1198 20.7499 52.1226 20.5877C52.1814 20.543 52.2527 20.5052 52.3366 20.4745C52.4204 20.4465 52.5085 20.4227 52.6008 20.4032C52.6903 20.3836 52.7826 20.3696 52.8776 20.3612C52.9727 20.3528 53.0622 20.3486 53.1461 20.3486C53.3027 20.3486 53.4607 20.3626 53.62 20.3906C53.7822 20.4185 53.929 20.4703 54.0605 20.5458C54.1891 20.6213 54.2953 20.7247 54.3792 20.8562C54.4603 20.9876 54.5009 21.1554 54.5009 21.3595C54.5009 21.558 54.4436 21.744 54.3289 21.9173C54.2143 22.0935 54.0311 22.2305 53.7794 22.3284V22.3494C53.8969 22.3689 54.0073 22.4039 54.1108 22.4542C54.2143 22.5018 54.3051 22.5661 54.3834 22.6472C54.4589 22.7283 54.5191 22.8275 54.5638 22.945C54.6085 23.0624 54.6309 23.2008 54.6309 23.3602C54.6309 23.5727 54.589 23.7573 54.5051 23.9139C54.4212 24.0705 54.3079 24.1991 54.1653 24.2998C54.0255 24.4032 53.8633 24.4787 53.6788 24.5263C53.4914 24.5766 53.2985 24.6018 53.0999 24.6018Z" fill="#A28B74"/>
<path d="M58.0032 24.3585V24.5305H56.6987V24.3585C56.8385 24.297 56.9798 24.2508 57.1224 24.2201L58.6072 20.3486H58.775L60.264 24.2201C60.3423 24.2341 60.4192 24.2508 60.4947 24.2704C60.5702 24.29 60.6415 24.3194 60.7086 24.3585V24.5305H59.207V24.3585C59.2853 24.3277 59.365 24.3012 59.4461 24.2788C59.5272 24.2536 59.6069 24.2341 59.6852 24.2201L59.2867 23.1421H57.8858L57.4957 24.2201C57.6607 24.2425 57.8298 24.2886 58.0032 24.3585ZM58.452 21.607L58.0032 22.8401H59.186L58.7246 21.5944L58.6114 21.0869H58.5988L58.452 21.607Z" fill="#A28B74"/>
<path d="M63.6866 20.7261V24.2201C63.8796 24.2508 64.0669 24.297 64.2487 24.3585V24.5305H62.6422V24.3585C62.7988 24.297 62.9596 24.2508 63.1246 24.2201V20.7345C63.0463 20.7205 62.9652 20.7009 62.8813 20.6758C62.8002 20.6506 62.7205 20.6213 62.6422 20.5877V20.4199H65.3896C65.3896 20.4982 65.3882 20.5877 65.3854 20.6884C65.3798 20.7918 65.3756 20.8981 65.3728 21.0071C65.3672 21.1162 65.3616 21.2225 65.356 21.3259C65.3476 21.4294 65.3378 21.5231 65.3266 21.6069H65.1715L64.8653 20.7261H63.6866Z" fill="#A28B74"/>
<path d="M67.5204 22.4752C67.5204 22.1704 67.5623 21.8866 67.6462 21.6237C67.7301 21.3637 67.8517 21.1386 68.0111 20.9484C68.1705 20.7611 68.3649 20.6143 68.5942 20.508C68.8263 20.4018 69.0891 20.3486 69.3827 20.3486C69.6763 20.3486 69.9392 20.4018 70.1713 20.508C70.4006 20.6143 70.5949 20.7611 70.7543 20.9484C70.9137 21.1386 71.0353 21.3637 71.1192 21.6237C71.2031 21.8866 71.245 22.1704 71.245 22.4752C71.245 22.78 71.2031 23.0624 71.1192 23.3225C71.0353 23.5825 70.9137 23.8076 70.7543 23.9978C70.5949 24.1879 70.4006 24.3361 70.1713 24.4424C69.9392 24.5487 69.6763 24.6018 69.3827 24.6018C69.0891 24.6018 68.8263 24.5487 68.5942 24.4424C68.3649 24.3361 68.1705 24.1879 68.0111 23.9978C67.8517 23.8076 67.7301 23.5825 67.6462 23.3225C67.5623 23.0624 67.5204 22.78 67.5204 22.4752ZM68.1495 22.4752C68.1495 22.7241 68.1761 22.959 68.2292 23.1799C68.2824 23.4036 68.3621 23.5965 68.4683 23.7587C68.5718 23.9237 68.7046 24.0537 68.8668 24.1488C69.0262 24.2467 69.2163 24.2956 69.4372 24.2956C69.6358 24.2956 69.8091 24.2467 69.9573 24.1488C70.1056 24.0537 70.2286 23.9237 70.3265 23.7587C70.4215 23.5965 70.4928 23.4036 70.5404 23.1799C70.5907 22.959 70.6159 22.7241 70.6159 22.4752C70.6159 22.2235 70.5907 21.9873 70.5404 21.7663C70.49 21.5454 70.4117 21.3525 70.3055 21.1875C70.1992 21.0225 70.0664 20.8925 69.907 20.7974C69.7448 20.7024 69.5547 20.6548 69.3366 20.6548C69.1213 20.6548 68.9381 20.7024 68.7871 20.7974C68.6361 20.8925 68.5131 21.0225 68.418 21.1875C68.3257 21.3525 68.2572 21.5454 68.2125 21.7663C68.1705 21.9873 68.1495 22.2235 68.1495 22.4752Z" fill="#A28B74"/>
<path d="M74.5334 22.9198V24.2201C74.6397 24.2313 74.739 24.2494 74.8312 24.2746C74.9263 24.2998 75.0144 24.3277 75.0955 24.3585V24.5305H73.489V24.3585C73.5673 24.3193 73.647 24.29 73.7281 24.2704C73.8092 24.2508 73.8889 24.2341 73.9672 24.2201V20.7345C73.8777 20.7205 73.7938 20.7009 73.7155 20.6758C73.6372 20.6506 73.5617 20.6213 73.489 20.5877V20.4199H74.0175C74.1741 20.4199 74.3433 20.4115 74.525 20.3948C74.7096 20.3808 74.8858 20.3738 75.0535 20.3738C75.2465 20.3738 75.4352 20.3934 75.6198 20.4325C75.8043 20.4744 75.9679 20.5444 76.1105 20.6422C76.2531 20.7401 76.3678 20.8701 76.4545 21.0323C76.544 21.1945 76.5887 21.3972 76.5887 21.6405C76.5887 21.8726 76.544 22.0697 76.4545 22.2319C76.3622 22.3969 76.2406 22.5325 76.0896 22.6388C75.9414 22.745 75.7708 22.8219 75.5778 22.8695C75.3849 22.9198 75.1878 22.945 74.9864 22.945C74.9669 22.945 74.9361 22.945 74.8941 22.945C74.8522 22.945 74.8075 22.9436 74.7599 22.9408C74.7152 22.938 74.6704 22.9352 74.6257 22.9324C74.5838 22.9296 74.553 22.9254 74.5334 22.9198ZM74.9319 20.6758C74.8368 20.6758 74.7599 20.6786 74.7012 20.6842C74.6425 20.687 74.5866 20.694 74.5334 20.7051V22.6094C74.553 22.6178 74.581 22.622 74.6173 22.622C74.6537 22.6248 74.6928 22.629 74.7348 22.6346C74.7767 22.6374 74.8172 22.6388 74.8564 22.6388C74.8955 22.6388 74.9263 22.6388 74.9487 22.6388C75.0857 22.6388 75.2157 22.6206 75.3388 22.5842C75.459 22.5451 75.5653 22.485 75.6575 22.4039C75.7498 22.3228 75.8225 22.2193 75.8756 22.0935C75.9316 21.9677 75.9595 21.8167 75.9595 21.6405C75.9595 21.3189 75.8687 21.0784 75.6869 20.9191C75.5051 20.7569 75.2535 20.6758 74.9319 20.6758Z" fill="#A28B74"/>
<path d="M78.8033 22.4752C78.8033 22.1704 78.8453 21.8866 78.9292 21.6237C79.0131 21.3637 79.1333 21.1386 79.2899 20.9484C79.4493 20.7611 79.645 20.6143 79.8771 20.508C80.1064 20.4018 80.3679 20.3486 80.6615 20.3486C80.9551 20.3486 81.2179 20.4018 81.45 20.508C81.6821 20.6143 81.8765 20.7611 82.0331 20.9484C82.1924 21.1386 82.3141 21.3637 82.398 21.6237C82.4819 21.8866 82.5238 22.1704 82.5238 22.4752C82.5238 22.78 82.4819 23.0624 82.398 23.3225C82.3141 23.5825 82.1924 23.8076 82.0331 23.9978C81.8765 24.1879 81.6821 24.3361 81.45 24.4424C81.2179 24.5487 80.9551 24.6018 80.6615 24.6018C80.3679 24.6018 80.1064 24.5487 79.8771 24.4424C79.645 24.3361 79.4493 24.1879 79.2899 23.9978C79.1333 23.8076 79.0131 23.5825 78.9292 23.3225C78.8453 23.0624 78.8033 22.78 78.8033 22.4752ZM79.4283 22.4752C79.4283 22.7241 79.4549 22.959 79.508 23.1799C79.5611 23.4036 79.6408 23.5965 79.7471 23.7587C79.8533 23.9237 79.9862 24.0537 80.1456 24.1488C80.3077 24.2467 80.4979 24.2956 80.716 24.2956C80.9145 24.2956 81.0893 24.2467 81.2403 24.1488C81.3885 24.0537 81.5101 23.9237 81.6052 23.7587C81.7003 23.5965 81.773 23.4036 81.8233 23.1799C81.8709 22.959 81.8946 22.7241 81.8946 22.4752C81.8946 22.2235 81.8695 21.9873 81.8191 21.7663C81.7688 21.5454 81.6905 21.3525 81.5842 21.1875C81.478 21.0225 81.3452 20.8925 81.1858 20.7974C81.0264 20.7024 80.8362 20.6548 80.6153 20.6548C80.4 20.6548 80.2169 20.7024 80.0659 20.7974C79.9149 20.8925 79.7932 21.0225 79.701 21.1875C79.6059 21.3525 79.5374 21.5454 79.4954 21.7663C79.4507 21.9873 79.4283 22.2235 79.4283 22.4752Z" fill="#A28B74"/>
<path d="M87.7165 24.2243H88.3834C88.3834 24.3026 88.3806 24.3934 88.375 24.4969C88.3666 24.6004 88.3568 24.7066 88.3456 24.8157C88.3317 24.9275 88.3177 25.0352 88.3037 25.1387C88.2925 25.2449 88.2799 25.3372 88.2659 25.4155H88.1149L87.8675 24.5305H84.9733L84.7258 25.4155H84.579C84.5595 25.3428 84.5427 25.2533 84.5287 25.147C84.5147 25.0408 84.5035 24.9317 84.4951 24.8199C84.484 24.708 84.4756 24.6004 84.47 24.4969C84.4616 24.3934 84.4574 24.3026 84.4574 24.2243H84.944C85.0446 24.0593 85.1411 23.8482 85.2334 23.5909C85.3229 23.3364 85.3997 23.0554 85.4641 22.7478C85.5284 22.4402 85.5801 22.1159 85.6193 21.7747C85.6584 21.4336 85.678 21.0966 85.678 20.7639C85.5773 20.7443 85.4766 20.7219 85.376 20.6968C85.2753 20.6688 85.176 20.6324 85.0782 20.5877V20.4199H88.1988V20.5877C88.1317 20.6157 88.059 20.6422 87.9807 20.6674C87.9024 20.6926 87.8143 20.7149 87.7165 20.7345V24.2243ZM85.3131 24.2243H87.1502V20.7261H86.0177C85.9954 21.2071 85.9576 21.6363 85.9045 22.0138C85.8513 22.3913 85.7898 22.7241 85.7199 23.0121C85.6528 23.3001 85.5829 23.5434 85.5102 23.7419C85.4375 23.9432 85.3718 24.104 85.3131 24.2243Z" fill="#A28B74"/>
<path d="M91.8983 24.3585V24.5305H90.4093V24.3585C90.5659 24.297 90.7267 24.2508 90.8917 24.2201V20.7345C90.7071 20.7093 90.5463 20.6604 90.4093 20.5877V20.4199H91.8983V20.5877C91.8312 20.6241 91.7599 20.6534 91.6844 20.6758C91.6117 20.7009 91.5362 20.7205 91.4579 20.7345V22.2697H93.2993V20.7345C93.2182 20.7149 93.1413 20.694 93.0686 20.6716C92.9959 20.6492 92.926 20.6213 92.8588 20.5877V20.4199H94.3437V20.5877C94.2738 20.6268 94.1969 20.6576 94.113 20.68C94.0291 20.7023 93.9466 20.7205 93.8655 20.7345V24.2201C93.955 24.2341 94.0403 24.2536 94.1214 24.2788C94.2053 24.3012 94.2794 24.3277 94.3437 24.3585V24.5305H92.8588V24.3585C93.0015 24.297 93.1483 24.2508 93.2993 24.2201V22.5759H91.4579V24.2201C91.5362 24.2341 91.6117 24.2536 91.6844 24.2788C91.7599 24.3012 91.8312 24.3277 91.8983 24.3585Z" fill="#A28B74"/>
<path d="M96.5876 22.4752C96.5876 22.1704 96.6296 21.8866 96.7135 21.6237C96.7974 21.3637 96.919 21.1386 97.0784 20.9484C97.2378 20.7611 97.4321 20.6143 97.6614 20.508C97.8935 20.4018 98.1564 20.3486 98.45 20.3486C98.7436 20.3486 99.0064 20.4018 99.2385 20.508C99.4678 20.6143 99.6622 20.7611 99.8216 20.9484C99.9809 21.1386 100.103 21.3637 100.186 21.6237C100.27 21.8866 100.312 22.1704 100.312 22.4752C100.312 22.78 100.27 23.0624 100.186 23.3225C100.103 23.5825 99.9809 23.8076 99.8216 23.9978C99.6622 24.1879 99.4678 24.3361 99.2385 24.4424C99.0064 24.5487 98.7436 24.6018 98.45 24.6018C98.1564 24.6018 97.8935 24.5487 97.6614 24.4424C97.4321 24.3361 97.2378 24.1879 97.0784 23.9978C96.919 23.8076 96.7974 23.5825 96.7135 23.3225C96.6296 23.0624 96.5876 22.78 96.5876 22.4752ZM97.2168 22.4752C97.2168 22.7241 97.2434 22.959 97.2965 23.1799C97.3496 23.4036 97.4293 23.5965 97.5356 23.7587C97.6391 23.9237 97.7719 24.0537 97.9341 24.1488C98.0934 24.2467 98.2836 24.2956 98.5045 24.2956C98.703 24.2956 98.8764 24.2467 99.0246 24.1488C99.1728 24.0537 99.2958 23.9237 99.3937 23.7587C99.4888 23.5965 99.5601 23.4036 99.6076 23.1799C99.658 22.959 99.6831 22.7241 99.6831 22.4752C99.6831 22.2235 99.658 21.9873 99.6076 21.7663C99.5573 21.5454 99.479 21.3525 99.3727 21.1875C99.2665 21.0225 99.1337 20.8925 98.9743 20.7974C98.8121 20.7024 98.6219 20.6548 98.4038 20.6548C98.1885 20.6548 98.0054 20.7024 97.8544 20.7974C97.7034 20.8925 97.5803 21.0225 97.4853 21.1875C97.393 21.3525 97.3245 21.5454 97.2797 21.7663C97.2378 21.9873 97.2168 22.2235 97.2168 22.4752Z" fill="#A28B74"/>
<path d="M102.552 20.4199H105.337C105.334 20.5765 105.327 20.7331 105.316 20.8897C105.308 21.0491 105.294 21.2099 105.274 21.3721H105.119L104.88 20.7261H103.601V22.2822H104.557L104.784 21.846H104.93C104.956 22.2347 104.956 22.6304 104.93 23.0331H104.784L104.557 22.5842H103.601V24.2243H104.951L105.237 23.5196H105.383C105.411 23.6846 105.431 23.851 105.442 24.0187C105.453 24.1865 105.456 24.3571 105.45 24.5305H102.552V24.3585C102.689 24.297 102.85 24.2508 103.034 24.2201V20.7345C102.956 20.7205 102.876 20.7009 102.795 20.6758C102.712 20.6506 102.63 20.6213 102.552 20.5877V20.4199Z" fill="#A28B74"/>
<path d="M113.688 24.1907L113.965 23.4609H114.116C114.136 23.57 114.154 23.7084 114.171 23.8761C114.185 24.0411 114.187 24.2019 114.179 24.3585C114.12 24.406 114.05 24.4438 113.969 24.4718C113.888 24.5025 113.802 24.5277 113.709 24.5473C113.617 24.5668 113.523 24.5808 113.428 24.5892C113.33 24.5976 113.238 24.6018 113.151 24.6018C112.824 24.6018 112.531 24.5584 112.271 24.4718C112.013 24.3879 111.795 24.2606 111.616 24.0901C111.44 23.9167 111.303 23.6958 111.205 23.4273C111.11 23.1589 111.063 22.8415 111.063 22.4752C111.063 22.0921 111.116 21.7663 111.222 21.4979C111.328 21.2295 111.471 21.01 111.65 20.8394C111.829 20.6688 112.039 20.5444 112.279 20.4661C112.517 20.3878 112.767 20.3486 113.03 20.3486C113.287 20.3486 113.504 20.3654 113.68 20.399C113.856 20.4325 114.011 20.4829 114.146 20.55C114.146 20.6115 114.144 20.6842 114.141 20.7681C114.136 20.852 114.129 20.9414 114.12 21.0365C114.115 21.1288 114.105 21.2211 114.091 21.3134C114.08 21.4028 114.069 21.4839 114.057 21.5566H113.906L113.6 20.7135C113.556 20.6884 113.484 20.673 113.386 20.6674C113.286 20.659 113.186 20.6548 113.089 20.6548C112.893 20.6548 112.708 20.6912 112.535 20.7639C112.359 20.8366 112.206 20.947 112.078 21.0952C111.946 21.2462 111.841 21.4364 111.763 21.6657C111.685 21.895 111.646 22.1648 111.646 22.4752C111.646 22.752 111.681 23.0037 111.751 23.2302C111.82 23.4539 111.922 23.6455 112.057 23.8048C112.188 23.9642 112.35 24.0859 112.543 24.1698C112.733 24.2536 112.95 24.2956 113.193 24.2956C113.322 24.2956 113.43 24.2858 113.516 24.2662C113.603 24.2467 113.66 24.2215 113.688 24.1907Z" fill="#A28B74"/>
<path d="M118.797 24.3585V24.5305H117.145V24.3585C117.231 24.3277 117.319 24.3012 117.409 24.2788C117.495 24.2536 117.591 24.2341 117.694 24.2201V20.7261H116.792L116.482 21.565H116.335C116.324 21.4867 116.314 21.3972 116.306 21.2966C116.297 21.1959 116.29 21.0938 116.285 20.9904C116.279 20.8869 116.275 20.7848 116.272 20.6842C116.266 20.5863 116.264 20.4982 116.264 20.4199H119.678C119.678 20.4982 119.675 20.5863 119.67 20.6842C119.667 20.782 119.663 20.8827 119.657 20.9862C119.651 21.0896 119.646 21.1917 119.64 21.2924C119.635 21.3902 119.625 21.4811 119.611 21.565H119.46L119.154 20.7261H118.256V24.2201C118.357 24.2396 118.452 24.2592 118.541 24.2788C118.628 24.2984 118.713 24.3249 118.797 24.3585Z" fill="#A28B74"/>
<path d="M122.765 22.9198V24.2201C122.871 24.2313 122.972 24.2494 123.067 24.2746C123.159 24.2998 123.247 24.3277 123.331 24.3585V24.5305H121.721V24.3585C121.799 24.3193 121.879 24.29 121.96 24.2704C122.044 24.2508 122.125 24.2341 122.203 24.2201V20.7345C122.114 20.7205 122.03 20.7009 121.951 20.6758C121.873 20.6506 121.796 20.6213 121.721 20.5877V20.4199H122.249C122.406 20.4199 122.576 20.4115 122.761 20.3948C122.945 20.3808 123.122 20.3738 123.289 20.3738C123.48 20.3738 123.667 20.3934 123.851 20.4325C124.036 20.4744 124.2 20.5444 124.342 20.6422C124.485 20.7401 124.601 20.8701 124.69 21.0323C124.777 21.1945 124.82 21.3972 124.82 21.6405C124.82 21.8726 124.776 22.0697 124.686 22.2319C124.597 22.3969 124.476 22.5325 124.325 22.6388C124.174 22.745 124.002 22.8219 123.81 22.8695C123.619 22.9198 123.422 22.945 123.218 22.945C123.199 22.945 123.168 22.945 123.126 22.945C123.087 22.945 123.043 22.9436 122.996 22.9408C122.948 22.938 122.904 22.9352 122.862 22.9324C122.817 22.9296 122.785 22.9254 122.765 22.9198ZM123.164 20.6758C123.071 20.6758 122.996 20.6786 122.937 20.6842C122.878 20.687 122.821 20.694 122.765 20.7051V22.6094C122.785 22.6178 122.814 22.622 122.853 22.622C122.89 22.6248 122.929 22.629 122.971 22.6346C123.01 22.6374 123.049 22.6388 123.088 22.6388C123.127 22.6388 123.159 22.6388 123.185 22.6388C123.322 22.6388 123.45 22.6206 123.57 22.5842C123.691 22.5451 123.797 22.485 123.889 22.4039C123.982 22.3228 124.056 22.2193 124.112 22.0935C124.165 21.9677 124.191 21.8167 124.191 21.6405C124.191 21.3189 124.1 21.0784 123.919 20.9191C123.737 20.7569 123.485 20.6758 123.164 20.6758Z" fill="#A28B74"/>
<path d="M127.035 22.4752C127.035 22.1704 127.077 21.8866 127.161 21.6237C127.245 21.3637 127.366 21.1386 127.526 20.9484C127.685 20.7611 127.88 20.6143 128.109 20.508C128.341 20.4018 128.604 20.3486 128.897 20.3486C129.191 20.3486 129.452 20.4018 129.682 20.508C129.914 20.6143 130.11 20.7611 130.269 20.9484C130.426 21.1386 130.547 21.3637 130.634 21.6237C130.718 21.8866 130.76 22.1704 130.76 22.4752C130.76 22.78 130.718 23.0624 130.634 23.3225C130.547 23.5825 130.426 23.8076 130.269 23.9978C130.11 24.1879 129.914 24.3361 129.682 24.4424C129.452 24.5487 129.191 24.6018 128.897 24.6018C128.604 24.6018 128.341 24.5487 128.109 24.4424C127.88 24.3361 127.685 24.1879 127.526 23.9978C127.366 23.8076 127.245 23.5825 127.161 23.3225C127.077 23.0624 127.035 22.78 127.035 22.4752ZM127.664 22.4752C127.664 22.7241 127.691 22.959 127.744 23.1799C127.797 23.4036 127.875 23.5965 127.979 23.7587C128.085 23.9237 128.219 24.0537 128.381 24.1488C128.541 24.2467 128.73 24.2956 128.948 24.2956C129.149 24.2956 129.324 24.2467 129.472 24.1488C129.62 24.0537 129.743 23.9237 129.841 23.7587C129.936 23.5965 130.007 23.4036 130.055 23.1799C130.105 22.959 130.131 22.7241 130.131 22.4752C130.131 22.2235 130.105 21.9873 130.055 21.7663C130.002 21.5454 129.924 21.3525 129.82 21.1875C129.714 21.0225 129.58 20.8925 129.417 20.7974C129.258 20.7024 129.069 20.6548 128.851 20.6548C128.636 20.6548 128.453 20.7024 128.302 20.7974C128.151 20.8925 128.028 21.0225 127.933 21.1875C127.84 21.3525 127.772 21.5454 127.727 21.7663C127.685 21.9873 127.664 22.2235 127.664 22.4752Z" fill="#A28B74"/>
<path d="M134.489 24.3585V24.5305H133V24.3585C133.156 24.2886 133.317 24.2424 133.482 24.2201V20.7345C133.404 20.7149 133.324 20.694 133.243 20.6716C133.159 20.6492 133.078 20.6213 133 20.5877V20.4199H134.489V20.5877C134.424 20.6213 134.357 20.6492 134.287 20.6716C134.217 20.694 134.138 20.7149 134.048 20.7345V23.2847L133.981 23.7251L134.262 23.2595L135.986 20.8771V20.7345C135.894 20.7149 135.808 20.6926 135.73 20.6674C135.649 20.6422 135.575 20.6157 135.508 20.5877V20.4199H137.001V20.5877C136.931 20.6213 136.854 20.6492 136.77 20.6716C136.689 20.694 136.605 20.7149 136.519 20.7345V24.2201C136.703 24.2508 136.864 24.297 137.001 24.3585V24.5305H135.508V24.3585C135.572 24.3305 135.641 24.304 135.713 24.2788C135.789 24.2536 135.87 24.2341 135.957 24.2201V21.6741L136.015 21.2336L135.755 21.6741L134.01 24.09V24.2201C134.1 24.2341 134.185 24.2536 134.266 24.2788C134.347 24.3012 134.421 24.3277 134.489 24.3585Z" fill="#A28B74"/>
<path d="M141.573 24.3585V24.5305H139.925V24.3585C140.011 24.3277 140.098 24.3012 140.185 24.2788C140.274 24.2536 140.369 24.2341 140.47 24.2201V20.7261H139.572L139.262 21.565H139.115C139.104 21.4867 139.094 21.3972 139.086 21.2966C139.077 21.1959 139.07 21.0938 139.065 20.9904C139.059 20.8869 139.053 20.7848 139.048 20.6842C139.045 20.5863 139.044 20.4982 139.044 20.4199H142.454C142.454 20.4982 142.452 20.5863 142.45 20.6842C142.447 20.782 142.443 20.8827 142.437 20.9862C142.429 21.0896 142.422 21.1917 142.416 21.2924C142.41 21.3902 142.402 21.4811 142.391 21.565H142.24L141.934 20.7261H141.036V24.2201C141.137 24.2396 141.232 24.2592 141.321 24.2788C141.408 24.2984 141.492 24.3249 141.573 24.3585Z" fill="#A28B74"/>
<path d="M144.501 20.4199H147.282C147.279 20.5765 147.272 20.7331 147.261 20.8897C147.252 21.0491 147.238 21.2099 147.219 21.3721H147.063L146.824 20.7261H145.545V22.2822H146.501L146.732 21.846H146.879C146.901 22.2347 146.901 22.6304 146.879 23.0331H146.732L146.501 22.5842H145.545V24.2243H146.896L147.181 23.5196H147.328C147.356 23.6846 147.375 23.851 147.386 24.0187C147.4 24.1865 147.403 24.3571 147.395 24.5305H144.501V24.3585C144.638 24.297 144.797 24.2508 144.979 24.2201V20.7345C144.9 20.7205 144.821 20.7009 144.74 20.6758C144.659 20.6506 144.579 20.6213 144.501 20.5877V20.4199Z" fill="#A28B74"/>
<path d="M150.696 20.7639C150.453 20.7247 150.253 20.666 150.096 20.5877V20.4199H153.183V20.5877C153.046 20.6604 152.885 20.7093 152.701 20.7345V24.2201C152.885 24.2508 153.046 24.297 153.183 24.3585V24.5305H151.694V24.3585C151.764 24.3277 151.835 24.3012 151.908 24.2788C151.984 24.2592 152.06 24.2396 152.139 24.2201V20.7261H151.04C151.026 21.3385 150.998 21.8474 150.956 22.2529C150.914 22.6583 150.862 22.9939 150.801 23.2595C150.736 23.5224 150.665 23.7321 150.587 23.8887C150.506 24.0453 150.418 24.1851 150.323 24.3082C150.244 24.4088 150.149 24.4829 150.037 24.5305C149.923 24.578 149.812 24.6018 149.706 24.6018C149.681 24.5682 149.653 24.5235 149.622 24.4675C149.594 24.4116 149.568 24.3515 149.542 24.2872C149.514 24.2229 149.493 24.1572 149.479 24.09C149.463 24.0257 149.453 23.9684 149.45 23.9181L149.538 23.7713L150.213 23.8971C150.272 23.7992 150.33 23.6692 150.385 23.507C150.441 23.3476 150.493 23.1435 150.541 22.8946C150.585 22.6458 150.622 22.3466 150.65 21.997C150.68 21.6503 150.696 21.2392 150.696 20.7639Z" fill="#A28B74"/>
<path d="M156.04 24.5305H155.285V24.3585C155.438 24.2886 155.599 24.2424 155.767 24.2201V20.7345C155.689 20.7205 155.609 20.7009 155.528 20.6758C155.444 20.6506 155.363 20.6213 155.285 20.5877V20.4199H156.849V20.5877C156.779 20.6213 156.699 20.6506 156.61 20.6758C156.523 20.7009 156.431 20.7205 156.333 20.7345V22.0809C156.403 22.0725 156.488 22.0641 156.589 22.0557C156.692 22.0446 156.783 22.039 156.862 22.039C157.057 22.039 157.246 22.0571 157.428 22.0935C157.612 22.1271 157.776 22.19 157.919 22.2822C158.058 22.3717 158.172 22.4948 158.258 22.6514C158.345 22.8079 158.388 23.0079 158.388 23.2512C158.388 23.4805 158.342 23.6762 158.25 23.8384C158.161 24.0006 158.042 24.1348 157.893 24.241C157.745 24.3473 157.575 24.4242 157.382 24.4717C157.186 24.5221 156.985 24.5472 156.778 24.5472C156.758 24.5472 156.72 24.5458 156.665 24.543C156.606 24.543 156.541 24.5416 156.472 24.5389C156.399 24.5361 156.323 24.5333 156.245 24.5305C156.167 24.5305 156.098 24.5305 156.04 24.5305ZM156.736 22.3452C156.638 22.3452 156.56 22.3466 156.501 22.3494C156.442 22.3494 156.386 22.3577 156.333 22.3745V24.2201C156.353 24.2257 156.381 24.2299 156.417 24.2327C156.453 24.2355 156.494 24.2369 156.539 24.2369C156.581 24.2396 156.621 24.241 156.66 24.241C156.699 24.241 156.729 24.241 156.748 24.241C156.885 24.241 157.014 24.2215 157.134 24.1823C157.257 24.1432 157.365 24.0831 157.457 24.002C157.55 23.9237 157.622 23.8216 157.675 23.6958C157.731 23.5699 157.759 23.4189 157.759 23.2428C157.759 22.9268 157.668 22.6975 157.487 22.5549C157.305 22.4151 157.055 22.3452 156.736 22.3452Z" fill="#A28B74"/>
<path d="M163.178 24.1907L163.455 23.4609H163.606C163.626 23.57 163.644 23.7084 163.661 23.8761C163.678 24.0411 163.682 24.2019 163.673 24.3585C163.615 24.406 163.543 24.4438 163.459 24.4718C163.378 24.5025 163.292 24.5277 163.199 24.5473C163.107 24.5668 163.013 24.5808 162.918 24.5892C162.823 24.5976 162.732 24.6018 162.646 24.6018C162.316 24.6018 162.022 24.5584 161.765 24.4718C161.505 24.3879 161.287 24.2606 161.111 24.0901C160.932 23.9167 160.795 23.6958 160.7 23.4273C160.602 23.1589 160.553 22.8415 160.553 22.4752C160.553 22.0921 160.606 21.7663 160.712 21.4979C160.818 21.2295 160.961 21.01 161.14 20.8394C161.322 20.6688 161.531 20.5444 161.769 20.4661C162.01 20.3878 162.26 20.3486 162.52 20.3486C162.78 20.3486 162.998 20.3654 163.174 20.399C163.35 20.4325 163.504 20.4829 163.636 20.55C163.636 20.6115 163.634 20.6842 163.631 20.7681C163.629 20.852 163.623 20.9414 163.615 21.0365C163.606 21.1288 163.596 21.2211 163.585 21.3134C163.574 21.4028 163.562 21.4839 163.548 21.5566H163.397L163.09 20.7135C163.048 20.6884 162.977 20.673 162.876 20.6674C162.776 20.659 162.677 20.6548 162.579 20.6548C162.383 20.6548 162.198 20.6912 162.025 20.7639C161.852 20.8366 161.699 20.947 161.568 21.0952C161.436 21.2462 161.331 21.4364 161.253 21.6657C161.175 21.895 161.136 22.1648 161.136 22.4752C161.136 22.752 161.171 23.0037 161.241 23.2302C161.311 23.4539 161.413 23.6455 161.547 23.8048C161.681 23.9642 161.843 24.0859 162.033 24.1698C162.226 24.2536 162.444 24.2956 162.688 24.2956C162.816 24.2956 162.924 24.2858 163.011 24.2662C163.095 24.2467 163.15 24.2215 163.178 24.1907Z" fill="#A28B74"/>
<path d="M168.287 24.3585V24.5305H166.639V24.3585C166.725 24.3277 166.812 24.3012 166.899 24.2788C166.988 24.2536 167.083 24.2341 167.184 24.2201V20.7261H166.286L165.976 21.565H165.829C165.815 21.4867 165.805 21.3972 165.8 21.2966C165.791 21.1959 165.785 21.0938 165.779 20.9904C165.773 20.8869 165.768 20.7848 165.762 20.6842C165.759 20.5863 165.758 20.4982 165.758 20.4199H169.168C169.168 20.4982 169.167 20.5863 169.164 20.6842C169.158 20.782 169.153 20.8827 169.147 20.9862C169.141 21.0896 169.136 21.1917 169.13 21.2924C169.125 21.3902 169.116 21.4811 169.105 21.565H168.95L168.648 20.7261H167.746V24.2201C167.85 24.2396 167.945 24.2592 168.031 24.2788C168.121 24.2984 168.206 24.3249 168.287 24.3585Z" fill="#A28B74"/>
<path d="M171.777 24.5305H171.211V24.3585C171.367 24.2858 171.528 24.2397 171.693 24.2201V20.7345C171.615 20.7206 171.535 20.701 171.454 20.6758C171.37 20.6506 171.289 20.6213 171.211 20.5877V20.42H171.836C171.908 20.42 171.98 20.4172 172.05 20.4116C172.117 20.4088 172.188 20.406 172.263 20.4032C172.339 20.3976 172.419 20.3934 172.503 20.3906C172.589 20.385 172.687 20.3822 172.796 20.3822C172.953 20.3822 173.112 20.3948 173.274 20.42C173.439 20.4479 173.586 20.4968 173.715 20.5668C173.846 20.6367 173.954 20.7345 174.038 20.8604C174.119 20.989 174.159 21.1554 174.159 21.3595C174.159 21.4602 174.144 21.5622 174.113 21.6657C174.082 21.7664 174.035 21.86 173.971 21.9467C173.906 22.0362 173.825 22.1145 173.727 22.1816C173.629 22.2487 173.513 22.2977 173.379 22.3284V22.3494C173.497 22.369 173.613 22.4025 173.727 22.4501C173.845 22.4976 173.948 22.5619 174.038 22.643C174.127 22.7213 174.2 22.8192 174.256 22.9366C174.315 23.0541 174.344 23.1953 174.344 23.3602C174.344 23.5728 174.296 23.7545 174.201 23.9055C174.106 24.0593 173.983 24.1852 173.832 24.283C173.684 24.3809 173.513 24.4522 173.32 24.4969C173.128 24.5417 172.933 24.564 172.737 24.564C172.6 24.564 172.447 24.5585 172.276 24.5473C172.103 24.5361 171.936 24.5305 171.777 24.5305ZM172.779 24.2579C172.922 24.2579 173.055 24.2369 173.178 24.1949C173.301 24.153 173.406 24.0929 173.492 24.0146C173.582 23.9391 173.652 23.8468 173.702 23.7377C173.753 23.6315 173.778 23.5154 173.778 23.3896C173.778 23.233 173.747 23.103 173.685 22.9995C173.627 22.8961 173.546 22.8136 173.442 22.7521C173.339 22.6933 173.218 22.6514 173.081 22.6262C172.947 22.6039 172.807 22.5927 172.662 22.5927H172.222V24.2117C172.277 24.2285 172.343 24.2411 172.419 24.2495C172.494 24.2551 172.614 24.2579 172.779 24.2579ZM172.222 22.2865H172.515C172.582 22.2865 172.662 22.2837 172.754 22.2781C172.847 22.2725 172.922 22.2655 172.981 22.2571C173.16 22.1956 173.307 22.0949 173.421 21.9551C173.539 21.8153 173.597 21.6517 173.597 21.4644C173.597 21.2071 173.519 21.0128 173.362 20.8813C173.209 20.7527 173.003 20.6884 172.746 20.6884C172.623 20.6884 172.519 20.6912 172.435 20.6968C172.349 20.6996 172.277 20.7052 172.222 20.7136V22.2865Z" fill="#A28B74"/>
<path d="M176.726 22.4752C176.726 22.1704 176.768 21.8866 176.852 21.6237C176.936 21.3637 177.058 21.1386 177.217 20.9484C177.376 20.7611 177.571 20.6143 177.8 20.508C178.032 20.4018 178.295 20.3486 178.589 20.3486C178.882 20.3486 179.144 20.4018 179.373 20.508C179.605 20.6143 179.801 20.7611 179.96 20.9484C180.117 21.1386 180.237 21.3637 180.321 21.6237C180.408 21.8866 180.451 22.1704 180.451 22.4752C180.451 22.78 180.408 23.0624 180.321 23.3225C180.237 23.5825 180.117 23.8076 179.96 23.9978C179.801 24.1879 179.605 24.3361 179.373 24.4424C179.144 24.5487 178.882 24.6018 178.589 24.6018C178.295 24.6018 178.032 24.5487 177.8 24.4424C177.571 24.3361 177.376 24.1879 177.217 23.9978C177.058 23.8076 176.936 23.5825 176.852 23.3225C176.768 23.0624 176.726 22.78 176.726 22.4752ZM177.355 22.4752C177.355 22.7241 177.382 22.959 177.435 23.1799C177.488 23.4036 177.567 23.5965 177.67 23.7587C177.776 23.9237 177.911 24.0537 178.073 24.1488C178.232 24.2467 178.421 24.2956 178.639 24.2956C178.84 24.2956 179.015 24.2467 179.163 24.1488C179.311 24.0537 179.433 23.9237 179.528 23.7587C179.626 23.5965 179.699 23.4036 179.746 23.1799C179.797 22.959 179.822 22.7241 179.822 22.4752C179.822 22.2235 179.797 21.9873 179.746 21.7663C179.693 21.5454 179.615 21.3525 179.511 21.1875C179.405 21.0225 179.271 20.8925 179.109 20.7974C178.949 20.7024 178.761 20.6548 178.543 20.6548C178.327 20.6548 178.144 20.7024 177.993 20.7974C177.842 20.8925 177.719 21.0225 177.624 21.1875C177.532 21.3525 177.463 21.5454 177.418 21.7663C177.376 21.9873 177.355 22.2235 177.355 22.4752Z" fill="#A28B74"/>
</svg>
