<svg xmlns="http://www.w3.org/2000/svg" width="16" height="16" fill="none"><g clip-path="url(#a)"><path fill="#89725B" fill-rule="evenodd" d="M15.633 3.965c.111-.364 0-.632-.53-.632h-1.75c-.445 0-.65.232-.762.487 0 0-.89 2.13-2.15 3.515-.408.401-.594.528-.816.528-.112 0-.279-.127-.279-.492V3.965c0-.437-.123-.632-.493-.632H6.1c-.278 0-.446.203-.446.396 0 .414.631.51.696 1.675v2.532c0 .555-.102.656-.325.656-.593 0-2.037-2.14-2.893-4.59-.166-.477-.334-.669-.782-.669H.6c-.5 0-.6.232-.6.487 0 .455.593 2.713 2.763 5.7 1.447 2.04 3.484 3.147 5.339 3.147 1.113 0 1.25-.246 1.25-.669v-1.542c0-.491.105-.59.458-.59.26 0 .705.129 1.743 1.112 1.187 1.166 1.382 1.689 2.05 1.689h1.75c.5 0 .751-.246.607-.731-.159-.483-.725-1.183-1.477-2.015-.408-.473-1.02-.983-1.206-1.238-.259-.328-.185-.474 0-.765 0 0 2.134-2.95 2.356-3.953" clip-rule="evenodd"/></g><defs><clipPath id="a"><path fill="#fff" d="M0 0h16v16H0z"/></clipPath></defs></svg>