<svg xmlns="http://www.w3.org/2000/svg" width="16" height="16" fill="none"><path fill="#89725B" d="M8 1.333a6.666 6.666 0 1 1-3.353 12.43l-3.31.904.901-3.312A6.667 6.667 0 0 1 8.001 1.334ZM5.73 4.867l-.134.005a.64.64 0 0 0-.248.067.862.862 0 0 0-.196.152c-.08.075-.125.14-.174.204A1.82 1.82 0 0 0 4.6 6.413c.001.327.087.645.22.942.273.602.721 1.238 1.313 1.828.143.142.283.285.434.418a6.298 6.298 0 0 0 2.56 1.364l.378.058c.124.006.247-.003.371-.009.194-.01.384-.063.555-.154a3.23 3.23 0 0 0 .256-.147s.028-.018.083-.06c.09-.066.145-.114.22-.192a.768.768 0 0 0 .14-.201c.052-.109.104-.316.125-.489.016-.132.012-.204.01-.248-.003-.072-.062-.146-.127-.177l-.388-.174s-.58-.253-.935-.414a.331.331 0 0 0-.117-.027.321.321 0 0 0-.252.084c-.003-.001-.048.037-.53.621a.233.233 0 0 1-.245.087.954.954 0 0 1-.128-.044l-.168-.072a4.017 4.017 0 0 1-1.05-.669c-.084-.073-.162-.153-.242-.23a4.198 4.198 0 0 1-.68-.846l-.039-.063a.616.616 0 0 1-.068-.137c-.025-.098.04-.177.04-.177s.163-.177.238-.273c.073-.093.135-.184.175-.249.079-.126.104-.256.062-.357-.186-.456-.38-.91-.578-1.36-.04-.09-.156-.154-.262-.167-.036-.004-.072-.008-.108-.01a2.257 2.257 0 0 0-.269.002l.135-.004Z"/></svg>